<svg viewBox="0 0 58 58" xmlns="http://www.w3.org/2000/svg"><g fill="currentColor" fill-rule="evenodd"><circle fill-opacity=".073" cx="29" cy="29" r="29"/><path d="M39.595 38.178c1.212.878 1.71 2.458 1.215 3.842a6.081 6.081 0 0 1-.518 1.103l-.41.605a4.14 4.14 0 0 1-.385.451c-.708.735-1.607 1.256-2.666 1.549a8.083 8.083 0 0 1-2.137.272c-4.455 0-10.186-3.067-14.957-8.004-5.68-5.878-8.683-12.987-7.47-17.688.282-1.098.786-2.026 1.496-2.76.13-.135.265-.261.41-.379l.58-.424c.353-.228.71-.408 1.096-.556 1.32-.505 2.886.032 3.714 1.257l2.941 4.357c.498.74.688 1.632.537 2.515a3.356 3.356 0 0 1-1.342 2.17l-1.401 1.01c1.098 1.696 2.632 3.587 4.374 5.39 1.742 1.803 3.571 3.39 5.21 4.527l.977-1.45a3.216 3.216 0 0 1 2.664-1.44c.667 0 1.31.211 1.862.608l4.21 3.045zm-.004 3.376c.291-.812-.014-1.747-.74-2.273l-4.21-3.044c-.857-.617-2.122-.381-2.716.5l-1.337 1.984a.638.638 0 0 1-.879.185c-1.844-1.202-3.96-3-5.955-5.065-1.994-2.064-3.732-4.253-4.892-6.162a.689.689 0 0 1 .178-.91l1.916-1.383c.43-.31.715-.772.806-1.302a2.065 2.065 0 0 0-.323-1.51l-2.941-4.356c-.374-.55-.967-.88-1.591-.88a1.71 1.71 0 0 0-.608.113 4.495 4.495 0 0 0-.828.416l-.527.383a3.31 3.31 0 0 0-.263.249c-.546.565-.936 1.291-1.16 2.157-1.08 4.187 1.855 10.927 7.134 16.389 4.535 4.694 9.914 7.61 14.038 7.61.65 0 1.256-.076 1.801-.227.836-.232 1.538-.636 2.084-1.2.09-.097.18-.194.26-.3l.372-.548c.136-.226.271-.513.381-.826zM43.346 14c.361 0 .654.31.654.693v9.696c0 .383-.293.693-.654.693H34.28l-1.561 3.52a.654.654 0 0 1-.592.398.653.653 0 0 1-.592-.398l-1.559-3.52h-2.321c-.361 0-.654-.31-.654-.693v-9.696c0-.383.293-.693.654-.693h15.692zm-.654 9.696v-8.31H28.307v8.31h2.083c.253 0 .484.156.592.399l1.144 2.583 1.146-2.583a.654.654 0 0 1 .592-.399h8.828zM30.63 19c-.348 0-.63-.224-.63-.5s.282-.5.63-.5h8.74c.348 0 .63.224.63.5s-.282.5-.63.5h-8.74zm0 3c-.348 0-.63-.224-.63-.5s.282-.5.63-.5h8.74c.348 0 .63.224.63.5s-.282.5-.63.5h-8.74z"/></g></svg>