<?xml version="1.0" encoding="utf-8"?>
<!-- Generator: Adobe Illustrator 15.0.0, SVG Export Plug-In . SVG Version: 6.00 Build 0)  -->
<!DOCTYPE svg PUBLIC "-//W3C//DTD SVG 1.1//EN" "http://www.w3.org/Graphics/SVG/1.1/DTD/svg11.dtd">
<svg version="1.1" id="Layer_1" xmlns="http://www.w3.org/2000/svg" xmlns:xlink="http://www.w3.org/1999/xlink" x="0px" y="0px"
	 width="100px" height="100px" viewBox="0 0 100 100" enable-background="new 0 0 100 100" xml:space="preserve">
<g id="Page-1">
	<g id="_x30_12---Landline-Phone">
		<path id="Shape" fill="#E9EDF7" d="M94.464,41.699l-5.05,13.644c-0.5,1.487-2.044,2.354-3.574,2.008l-10.617-2.449l-4.106-0.943
			c-1.381-0.318-2.359-1.549-2.357-2.966v-6.799c-0.005-0.972-0.467-1.885-1.248-2.464c-4.986-3.451-10.943-5.22-17.005-5.05
			c-6.062-0.17-12.019,1.599-17.005,5.05c-0.781,0.579-1.243,1.492-1.248,2.464v6.799c0.001,1.417-0.977,2.647-2.357,2.966
			l-4.107,0.943l-10.617,2.449c-1.53,0.347-3.075-0.521-3.575-2.008l-5.05-13.644c-0.4-1.205-0.012-2.531,0.974-3.331
			c5.612-4.472,20.047-13.857,42.985-13.857s37.372,9.385,42.984,13.857C94.477,39.167,94.864,40.494,94.464,41.699L94.464,41.699z"
			/>
		<path id="Shape_1_" fill="#CDD8EF" d="M93.49,38.368c-5.612-4.472-20.047-13.857-42.984-13.857c-0.779,0-1.521,0.037-2.282,0.058
			c21.599,0.599,35.289,9.479,40.704,13.799c0.985,0.8,1.373,2.126,0.974,3.331l-5.051,13.644c-0.208,0.617-0.609,1.15-1.145,1.521
			l2.129,0.493c1.53,0.347,3.075-0.521,3.574-2.008l5.055-13.65C94.864,40.494,94.477,39.167,93.49,38.368L93.49,38.368z"/>
		<path id="Shape_2_" fill="#E9EDF7" d="M91.574,81.672v9.766c-0.005,1.678-1.364,3.037-3.042,3.042H12.479
			c-1.678-0.005-3.037-1.364-3.042-3.042v-9.766c0.001-0.576,0.165-1.14,0.471-1.627l15.88-25.144l4.107-0.943
			c1.381-0.318,2.358-1.549,2.357-2.966v-6.799c0.004-0.972,0.466-1.885,1.248-2.464c4.986-3.451,10.944-5.22,17.005-5.05
			c6.062-0.17,12.019,1.599,17.005,5.05c0.781,0.579,1.243,1.492,1.248,2.464v6.799c-0.002,1.417,0.977,2.647,2.357,2.966
			l4.106,0.943l15.88,25.144C91.409,80.532,91.572,81.096,91.574,81.672z"/>
		<path id="Shape_3_" fill="#CDD8EF" d="M91.103,80.045l-15.88-25.144l-4.106-0.943c-1.381-0.318-2.359-1.549-2.357-2.966v-6.799
			c-0.005-0.972-0.467-1.885-1.248-2.464c-4.986-3.451-10.943-5.22-17.005-5.05c-0.797,0-1.537,0.055-2.282,0.104
			c5.277,0.224,10.382,1.939,14.724,4.946c0.78,0.579,1.243,1.492,1.247,2.464v6.799c-0.001,1.417,0.977,2.647,2.357,2.966
			l4.106,0.943l15.88,25.144c0.307,0.487,0.471,1.051,0.472,1.627v9.766c-0.005,1.678-1.364,3.037-3.042,3.042h4.563
			c1.678-0.005,3.037-1.364,3.042-3.042v-9.766C91.572,81.096,91.409,80.532,91.103,80.045L91.103,80.045z"/>
		<circle id="Oval" fill="#A8C0E4" cx="50.506" cy="67.1" r="15.21"/>
		<circle id="Oval_1_" fill="#88AAD9" cx="50.506" cy="67.101" r="3.042"/>
		<path id="Shape_4_" fill="#FFFFFF" d="M11.597,55.343c0.5,1.487,2.044,2.354,3.575,2.008l2.129-0.493
			c-0.536-0.37-0.937-0.904-1.146-1.521L11.11,41.699c-0.4-1.205-0.012-2.531,0.974-3.331c11.04-8.796,25.772-13.385,40.681-13.822
			c-16.428-0.465-33.079,4.128-45.244,13.822c-0.986,0.8-1.374,2.126-0.974,3.331L11.597,55.343z"/>
		<path id="Shape_5_" fill="#FFFFFF" d="M12.479,94.479h4.563c-1.678-0.005-3.037-1.364-3.042-3.042v-9.766
			c0-1.247-0.913,0.573,16.351-26.771l-5.342,1.232C8.56,82.169,9.438,80.444,9.438,81.672v9.766
			C9.442,93.115,10.801,94.475,12.479,94.479L12.479,94.479z"/>
		<path id="Rectangle-path" fill="#FFFFFF" d="M8.589,79.233l6.498-10.283l2.571,1.625L11.16,80.857L8.589,79.233z"/>
		<g>
			<path id="Shape_6_" fill="#212121" d="M86.536,58.953c1.945,0.007,3.676-1.232,4.297-3.075l5.068-13.689
				c0.603-1.81,0.017-3.803-1.469-4.998C87.779,31.883,73.226,22.99,50.506,22.99c-22.72,0-37.266,8.894-43.927,14.195
				c-1.497,1.208-2.078,3.225-1.453,5.045l5.035,13.602c0.735,2.242,3.064,3.547,5.36,3.004l7.006-1.621L15.12,68.94
				c-0.291,0.46-0.314,1.039-0.062,1.521c0.253,0.481,0.743,0.792,1.286,0.814c0.543,0.021,1.057-0.248,1.348-0.707l9.047-14.323
				l3.499-0.807c2.074-0.473,3.544-2.32,3.536-4.447v-6.8c-0.001-0.489,0.234-0.95,0.631-1.236
				c4.72-3.267,10.363-4.934,16.101-4.755c5.737-0.179,11.38,1.487,16.099,4.755c0.397,0.286,0.634,0.747,0.633,1.236v6.8
				c-0.008,2.127,1.462,3.975,3.536,4.447l3.499,0.807l15.54,24.605c0.155,0.246,0.239,0.53,0.24,0.821v9.766
				c0,0.84-0.681,1.521-1.521,1.521H12.479c-0.84,0-1.521-0.681-1.521-1.521v-9.766c0.001-0.291,0.085-0.575,0.24-0.821
				c0.288-0.462,0.308-1.042,0.052-1.522s-0.749-0.788-1.293-0.807s-1.057,0.255-1.345,0.717c-0.456,0.729-0.697,1.573-0.696,2.434
				v9.766c0,2.52,2.043,4.563,4.563,4.563h76.053c2.52,0,4.563-2.043,4.563-4.563v-9.766c-0.003-0.861-0.247-1.704-0.705-2.434
				L78.493,57.214l6.997,1.621C85.833,58.914,86.185,58.954,86.536,58.953z M75.563,53.42h-0.012l-4.094-0.944
				c-0.69-0.16-1.18-0.775-1.179-1.484v-6.8c-0.006-1.454-0.698-2.82-1.868-3.684c-5.242-3.653-11.519-5.528-17.905-5.35
				c-6.388-0.179-12.665,1.697-17.908,5.351c-1.169,0.864-1.861,2.229-1.866,3.682v6.8c0,0.708-0.489,1.322-1.179,1.481
				L14.833,55.87c-0.783,0.182-1.572-0.277-1.801-1.048L7.996,41.22c-0.2-0.596-0.009-1.254,0.479-1.65
				c5.106-4.075,19.424-13.537,42.031-13.537s36.925,9.462,42.031,13.537c0.48,0.384,0.677,1.023,0.494,1.611l-5.068,13.689
				c-0.247,0.744-1.02,1.179-1.784,1.003L75.563,53.42z"/>
			<path id="Shape_7_" fill="#5A84C4" d="M13.188,76.421c-0.84,0.005-1.524-0.673-1.529-1.513c-0.004-0.841,0.673-1.525,1.513-1.529
				h0.016c0.84,0,1.521,0.682,1.521,1.521S14.028,76.421,13.188,76.421z"/>
			<path id="Shape_8_" fill="#212121" d="M67.237,67.101c0-9.241-7.491-16.731-16.731-16.731c-9.241,0-16.732,7.49-16.732,16.731
				c0,9.24,7.491,16.731,16.732,16.731C59.741,83.821,67.227,76.336,67.237,67.101z M36.816,67.101
				c0-7.561,6.129-13.689,13.689-13.689s13.689,6.129,13.689,13.689S58.066,80.79,50.506,80.79
				C42.949,80.78,36.826,74.657,36.816,67.101z"/>
			<path id="Shape_9_" fill="#212121" d="M55.068,67.101c0-2.521-2.042-4.563-4.563-4.563s-4.563,2.043-4.563,4.563
				c0,2.52,2.043,4.563,4.563,4.563S55.068,69.62,55.068,67.101z M48.985,67.101c0-0.84,0.681-1.521,1.521-1.521
				c0.84,0,1.521,0.682,1.521,1.521s-0.681,1.521-1.521,1.521C49.666,68.621,48.985,67.94,48.985,67.101z"/>
			<path id="Shape_10_" fill="#5864AE" d="M37.6,17.689c-0.577,0.597-0.568,1.545,0.019,2.132c0.587,0.586,1.535,0.595,2.132,0.019
				c5.944-5.931,15.567-5.931,21.51,0c0.382,0.396,0.947,0.554,1.479,0.415s0.947-0.554,1.086-1.086
				c0.14-0.532-0.019-1.098-0.414-1.479C56.279,10.572,44.732,10.572,37.6,17.689L37.6,17.689z"/>
			<path id="Shape_11_" fill="#5864AE" d="M68.79,15.353c0.615,0,1.17-0.371,1.405-0.939s0.105-1.222-0.33-1.657
				c-10.699-10.675-28.02-10.675-38.719,0c-0.577,0.597-0.568,1.545,0.018,2.132c0.587,0.586,1.536,0.595,2.132,0.019
				c9.511-9.488,24.908-9.488,34.418,0C68,15.192,68.387,15.353,68.79,15.353L68.79,15.353z"/>
		</g>
	</g>
</g>
</svg>
