<?xml version="1.0" encoding="utf-8"?>
<!-- Generator: Adobe Illustrator 15.0.0, SVG Export Plug-In . SVG Version: 6.00 Build 0)  -->
<!DOCTYPE svg PUBLIC "-//W3C//DTD SVG 1.1//EN" "http://www.w3.org/Graphics/SVG/1.1/DTD/svg11.dtd">
<svg version="1.1" id="Layer_1" xmlns="http://www.w3.org/2000/svg" xmlns:xlink="http://www.w3.org/1999/xlink" x="0px" y="0px"
	 width="100px" height="100px" viewBox="0 0 100 100" enable-background="new 0 0 100 100" xml:space="preserve">
<g>
	<path fill="#57BFED" d="M23.822,9.673h53.356v12.624H23.822V9.673z"/>
	<path fill="#83D5F7" d="M18.772,14.723h63.455v12.624H18.772V14.723z"/>
	<path fill="#C2E8FB" d="M13.723,19.772h73.554v12.624H13.723V19.772z"/>
	<path fill="#E0F3FD" d="M8.673,24.822h83.653v68.504H8.673V24.822z"/>
	<path fill="#57BFED" d="M82.228,29.872L56.98,74.968h30.297V29.872H82.228z"/>
	<path fill="#83D5F7" d="M13.723,29.872h68.504v45.096H13.723V29.872z"/>
	<path fill="#F05479" d="M50.5,34.921v35.01c9.668,0,17.505-7.837,17.505-17.505C68.005,42.758,60.168,34.921,50.5,34.921z"/>
	<path fill="#F3716A" d="M62.956,52.426c0-9.667-5.577-17.505-12.456-17.505c-9.667,0-17.505,7.837-17.505,17.505
		c0,9.668,7.837,17.505,17.505,17.505C57.379,69.931,62.956,62.094,62.956,52.426z"/>
	<path fill="#25A0DA" d="M27.534,61.459l14.944,14.55L13.723,88.277v-13.31L27.534,61.459z"/>
	<path fill="#227BC0" d="M87.277,74.968l-5.05-4.938l-5.05,15.723l10.1,2.525V74.968z"/>
	<path fill="#25A0DA" d="M73.466,61.459l-14.944,14.55l23.706,7.329V70.029L73.466,61.459z"/>
	<path fill="#8AC247" d="M87.277,88.277h-5.05l-5.05-2.47l5.05-2.47L87.277,88.277z"/>
	<path fill="#B0D16F" d="M82.228,83.338v4.939H13.723l20.63-20.18L50.5,61.752l16.147,6.346L82.228,83.338z"/>
	<path fill="#FFFFFF" d="M50.5,52.303L34.352,68.098l8.126,7.911l8.021-7.597l8.021,7.597l8.126-7.911L50.5,52.303z"/>
	<path fill="#010101" d="M92.326,23.56h-3.787v-3.787c0-0.697-0.565-1.262-1.262-1.262H83.49v-3.787
		c0-0.697-0.565-1.263-1.263-1.263H78.44V9.673c0-0.697-0.565-1.262-1.263-1.262H23.822c-0.697,0-1.262,0.565-1.262,1.262v3.787
		h-3.787c-0.697,0-1.262,0.565-1.262,1.263v3.787h-3.787c-0.697,0-1.263,0.565-1.263,1.262v3.787H8.673
		c-0.697,0-1.262,0.565-1.262,1.262v68.504c0,0.697,0.565,1.264,1.262,1.264h83.653c0.697,0,1.264-0.566,1.264-1.264V24.822
		C93.59,24.125,93.023,23.56,92.326,23.56z M25.084,10.936h50.832v2.524H25.084V10.936z M20.035,15.985h60.93v2.525h-60.93V15.985z
		 M14.985,21.035h71.029v2.525H14.985V21.035z M91.064,92.064H9.936v-65.98h81.128V92.064z"/>
	<path fill="#010101" d="M13.723,89.539h73.554c0.696,0,1.262-0.565,1.262-1.262V29.872c0-0.697-0.565-1.263-1.262-1.263H13.723
		c-0.697,0-1.263,0.565-1.263,1.263v38.033c0,0.697,0.565,1.262,1.263,1.262c0.697,0,1.262-0.564,1.262-1.262V31.134h71.029v40.833
		L74.35,60.556c-0.49-0.479-1.272-0.479-1.764-0.002l-5.937,5.78l-1.824-1.785c2.872-3.387,4.442-7.645,4.442-12.123
		c0-10.349-8.419-18.767-18.768-18.767c-10.348,0-18.767,8.418-18.767,18.767c0,4.478,1.569,8.736,4.442,12.123l-1.824,1.785
		l-5.937-5.78c-0.491-0.478-1.273-0.477-1.763,0.002L12.84,74.065c-0.243,0.237-0.38,0.563-0.38,0.902v13.31
		C12.46,88.974,13.026,89.539,13.723,89.539L13.723,89.539z M16.819,87.015l17.536-17.153l7.244,7.052
		c0.485,0.473,1.257,0.478,1.749,0.012l7.153-6.775l7.153,6.775c0.491,0.466,1.264,0.46,1.749-0.012l7.243-7.052l17.536,17.153
		H16.819z M73.465,63.223l12.55,12.276v9.777L68.455,68.1L73.465,63.223z M34.258,52.426c0-8.956,7.286-16.243,16.242-16.243
		s16.243,7.287,16.243,16.243c0,3.814-1.319,7.441-3.73,10.351L51.383,51.4c-0.491-0.48-1.274-0.48-1.766,0L37.988,62.776
		C35.576,59.867,34.258,56.239,34.258,52.426L34.258,52.426z M50.5,54.068l14.34,14.026l-6.331,6.164l-7.141-6.764
		c-0.487-0.461-1.25-0.461-1.736,0l-7.141,6.764l-6.33-6.164L50.5,54.068z M27.536,63.223l5.01,4.877l-17.56,17.177v-9.777
		L27.536,63.223z"/>
</g>
</svg>
