<?xml version="1.0" encoding="utf-8"?>
<!-- Generator: Adobe Illustrator 15.0.0, SVG Export Plug-In . SVG Version: 6.00 Build 0)  -->
<!DOCTYPE svg PUBLIC "-//W3C//DTD SVG 1.1//EN" "http://www.w3.org/Graphics/SVG/1.1/DTD/svg11.dtd">
<svg version="1.1" id="Layer_1" xmlns="http://www.w3.org/2000/svg" xmlns:xlink="http://www.w3.org/1999/xlink" x="0px" y="0px"
	 width="100px" height="100px" viewBox="0 0 100 100" enable-background="new 0 0 100 100" xml:space="preserve">
<g>
	<ellipse fill="#25A24C" cx="50.5" cy="84.06" rx="47.725" ry="13.165"/>
	<path fill="#231F20" d="M50.5,98.725c-23.863,0-49.225-5.14-49.225-14.664c0-9.526,25.362-14.666,49.225-14.666
		s49.225,5.14,49.225,14.666C99.725,93.585,74.363,98.725,50.5,98.725z M50.5,72.395c-27.241,0-46.225,6.148-46.225,11.666
		c0,5.517,18.984,11.664,46.225,11.664s46.225-6.147,46.225-11.664C96.725,78.543,77.741,72.395,50.5,72.395z"/>
</g>
<g>
	<path fill="#EABA1F" d="M71.361,10.537L71.361,10.537c-11.682-11.681-30.623-11.681-42.304,0l0,0
		c-10.526,10.526-11.709,30.345-2.778,42.254l23.93,34.561l23.93-34.561C83.07,40.882,81.887,21.063,71.361,10.537z M50.5,41.271
		c-5.454,0-9.874-4.42-9.874-9.874s4.42-9.875,9.874-9.875s9.874,4.42,9.874,9.875C60.374,36.851,55.954,41.271,50.5,41.271z"/>
	<path fill="#231F20" d="M50.209,89.986L25.045,53.645c-9.394-12.525-8.031-33.186,2.951-44.168c5.933-5.933,13.822-9.2,22.213-9.2
		s16.28,3.267,22.212,9.2c10.982,10.982,12.345,31.643,2.917,44.215L50.209,89.986z M50.209,3.276
		c-7.59,0-14.725,2.955-20.092,8.321C20.116,21.6,18.883,40.428,27.479,51.891l22.73,32.826l22.696-32.779
		c8.63-11.509,7.397-30.337-2.604-40.34C64.935,6.231,57.799,3.276,50.209,3.276z M50.5,42.771c-6.271,0-11.374-5.103-11.374-11.374
		c0-6.272,5.103-11.375,11.374-11.375s11.374,5.103,11.374,11.375C61.874,37.668,56.771,42.771,50.5,42.771z M50.5,23.022
		c-4.618,0-8.374,3.757-8.374,8.375c0,4.618,3.756,8.374,8.374,8.374c4.617,0,8.374-3.756,8.374-8.374
		C58.874,26.779,55.117,23.022,50.5,23.022z"/>
</g>
</svg>
