<?xml version="1.0" encoding="utf-8"?>
<!-- Generator: Adobe Illustrator 15.0.0, SVG Export Plug-In . SVG Version: 6.00 Build 0)  -->
<!DOCTYPE svg PUBLIC "-//W3C//DTD SVG 1.1//EN" "http://www.w3.org/Graphics/SVG/1.1/DTD/svg11.dtd">
<svg version="1.1" id="Layer_1" xmlns="http://www.w3.org/2000/svg" xmlns:xlink="http://www.w3.org/1999/xlink" x="0px" y="0px"
	 width="100px" height="100px" viewBox="0 0 100 100" enable-background="new 0 0 100 100" xml:space="preserve">
<g id="Layer_6">
	<g>
		<path fill="#EBF7FE" d="M7.586,47.459h22.989v42.915H7.586V47.459z"/>
		<path fill="#EBF7FE" d="M70.425,47.459h22.989v42.915H70.425V47.459z"/>
		<path fill="#EBF7FE" d="M30.575,50.525h39.85v39.849h-39.85V50.525z"/>
	</g>
	<path fill="#F7D881" d="M24.445,50.525h6.13v39.849h-6.13V50.525z"/>
	<path fill="#F7D881" d="M70.425,50.525h6.13v39.849h-6.13V50.525z"/>
	<path fill="#F7D881" d="M22.913,19.872c0,2.894-1.363,5.62-3.679,7.356l-2.452,1.84h67.436l-2.452-1.84
		c-2.316-1.736-3.679-4.462-3.679-7.356H22.913z"/>
	<path fill="#FAE8B3" d="M96.479,41.329l-4.094-2.728c-3.186-2.125-5.101-5.702-5.103-9.533H13.716
		c-0.001,3.831-1.916,7.408-5.104,9.533l-4.092,2.728H96.479z"/>
	<path fill="#C1C8D1" d="M4.521,41.329h91.958v6.131H4.521V41.329z"/>
	<path fill="#F1C251" d="M50.5,18.339c-6.086,11.162-13.996,21.228-23.404,29.779l-2.651,2.406h52.109l-2.651-2.406
		C64.496,39.567,56.586,29.501,50.5,18.339z"/>
	<path fill="#A1A8B2" d="M4.521,90.374h91.958v6.131H4.521V90.374z"/>
	<path fill="#A1A8B2" d="M36.706,59.721h27.588v6.131H36.706V59.721z"/>
	<path fill="#F7D881" d="M39.771,65.852h21.457v24.522H39.771V65.852z"/>
	<path fill="#C1C8D1" d="M45.902,71.981h9.196v18.393h-9.196V71.981z"/>
	<path fill="#F1C251" d="M65.827,19.872C59.756,15.825,54.546,10.616,50.5,4.546c-4.047,6.07-9.257,11.279-15.327,15.326H65.827z"/>
	<path fill="#C1C8D1" d="M45.902,44.394v-4.598c0-2.54,2.059-4.598,4.598-4.598s4.598,2.058,4.598,4.598v4.598H45.902z"/>
	<path fill="#C1C8D1" d="M13.716,53.59h10.729v21.457H13.716V53.59z"/>
	<path fill="#C1C8D1" d="M76.555,53.59h10.729v21.457H76.555V53.59z"/>
	<path fill="#010101" d="M96.479,48.992c0.846,0,1.532-0.686,1.532-1.533v-6.131c-0.012-0.51-0.275-0.981-0.705-1.256l-4.093-2.729
		c-2.576-1.73-4.197-4.564-4.383-7.663l0.414-0.414c1.69-1.671,2.642-3.952,2.636-6.33h-3.065c0,1.557-0.616,3.05-1.716,4.154
		l-0.445,0.444h-1.93l-2.039-1.533c-1.771-1.317-2.889-3.333-3.065-5.533l0.414-0.414c1.693-1.666,2.647-3.939,2.651-6.315H79.62
		c0,1.557-0.617,3.051-1.717,4.154l-0.445,0.444H66.316c-5.755-3.885-10.695-8.857-14.545-14.637
		C51.301,3,50.348,2.813,49.645,3.286c-0.165,0.11-0.307,0.252-0.417,0.417c-3.849,5.78-8.79,10.751-14.545,14.637H23.541
		l-0.444-0.444c-1.099-1.103-1.717-2.597-1.717-4.154h-3.065c-0.005,2.37,0.938,4.644,2.621,6.315l0.414,0.414
		c-0.17,2.195-1.275,4.209-3.035,5.533l-2.038,1.533h-1.932L13.9,27.091c-1.099-1.104-1.716-2.597-1.717-4.154H9.119
		c-0.005,2.37,0.938,4.644,2.621,6.314l0.413,0.415c-0.185,3.098-1.806,5.932-4.383,7.663l-4.092,2.728
		c-0.428,0.282-0.687,0.76-0.689,1.272v6.131c0,0.847,0.686,1.533,1.533,1.533h1.533v39.849H4.521c-0.847,0-1.533,0.686-1.533,1.533
		v6.131c0,0.846,0.686,1.532,1.533,1.532h91.958c0.846,0,1.532-0.687,1.532-1.532v-6.131c0-0.848-0.687-1.533-1.532-1.533h-1.533
		V48.992H96.479z M94.946,45.927h-21.12c-1.073-0.996-2.131-2.022-3.157-3.065h24.277V45.927z M71.956,88.841V52.058h3.065v36.783
		H71.956z M53.565,88.841h-6.131V73.514h6.131V88.841z M55.098,70.448h-9.196c-0.847,0-1.533,0.688-1.533,1.533v16.859h-3.065
		V67.383h18.392v21.458h-3.065V71.981C56.631,71.136,55.943,70.448,55.098,70.448z M38.239,64.319v-3.065h24.523v3.065H38.239z
		 M62.762,67.383h1.532c0.846,0,1.533-0.686,1.533-1.531v-6.131c0-0.847-0.688-1.532-1.533-1.532H36.706
		c-0.846,0-1.533,0.686-1.533,1.532v6.131c0,0.846,0.687,1.531,1.533,1.531h1.533v21.458h-6.131V52.058h36.783v36.783h-6.129V67.383
		z M6.054,45.927v-3.065h24.277c-1.027,1.043-2.084,2.069-3.157,3.065H6.054z M50.5,21.405c4.44,7.745,9.77,14.945,15.879,21.457
		h-9.748v-3.065c0-3.386-2.745-6.13-6.131-6.13s-6.131,2.744-6.131,6.13v3.065h-9.747C40.73,36.35,46.058,29.149,50.5,21.405z
		 M28.414,48.992c1.088-0.996,2.161-2.023,3.219-3.065h37.734c1.058,1.042,2.129,2.069,3.218,3.065H28.414z M53.565,42.861h-6.131
		v-3.065c0-1.693,1.372-3.065,3.065-3.065s3.065,1.372,3.065,3.065V42.861z M22.913,73.514h-7.664V55.123h7.664V73.514z
		 M25.978,52.058h3.065v36.783h-3.065V52.058z M78.087,55.123h7.664v18.391h-7.664V55.123z M91.437,39.796H67.726
		c-2.681-2.932-5.208-6.001-7.57-9.196h25.688C86.277,34.335,88.319,37.694,91.437,39.796z M79.788,27.535H57.979
		c-1.381-2.008-2.713-4.031-3.955-6.13h22.637C77.002,23.736,78.102,25.89,79.788,27.535L79.788,27.535z M50.5,7.228
		c3.021,4.173,6.599,7.913,10.637,11.111h-8.873l-0.415-0.735c-0.402-0.746-1.332-1.023-2.077-0.621
		c-0.263,0.142-0.479,0.358-0.621,0.621l-0.414,0.735h-8.874C43.901,15.141,47.479,11.401,50.5,7.228L50.5,7.228z M24.337,21.405
		h22.637c-1.241,2.1-2.575,4.123-3.954,6.13h-21.81C22.898,25.89,23.997,23.736,24.337,21.405z M15.142,30.601h25.702
		c-2.361,3.195-4.889,6.264-7.571,9.196H9.563c3.116-2.103,5.16-5.461,5.594-9.196H15.142z M23.832,48.992l-0.43,0.398
		c-0.315,0.292-0.493,0.704-0.49,1.134v1.533h-9.196c-0.847,0-1.533,0.686-1.533,1.532v21.457c0,0.847,0.686,1.532,1.533,1.532
		h9.196v3.065H9.119V48.992H23.832z M9.119,82.71h13.793v6.131H9.119V82.71z M94.946,94.972H6.054v-3.065h88.893V94.972z
		 M78.087,88.841V82.71h13.794v6.131H78.087z M91.881,79.645H78.087v-3.065h9.196c0.846,0,1.532-0.686,1.532-1.532V53.59
		c0-0.847-0.687-1.532-1.532-1.532h-9.196v-1.533c0.003-0.431-0.176-0.842-0.489-1.134l-0.445-0.398h14.729V79.645z"/>
</g>
</svg>
