<?xml version="1.0" encoding="utf-8"?>
<!-- Generator: Adobe Illustrator 15.0.0, SVG Export Plug-In . SVG Version: 6.00 Build 0)  -->
<!DOCTYPE svg PUBLIC "-//W3C//DTD SVG 1.1//EN" "http://www.w3.org/Graphics/SVG/1.1/DTD/svg11.dtd">
<svg version="1.1" id="Layer_1" xmlns="http://www.w3.org/2000/svg" xmlns:xlink="http://www.w3.org/1999/xlink" x="0px" y="0px"
	 width="100px" height="100px" viewBox="0 0 100 100" enable-background="new 0 0 100 100" xml:space="preserve">
<g>
	<circle opacity="0.75" fill="#FFFFFF" fill-opacity="0.073" cx="50" cy="50" r="50"/>
	<path fill="#FFFFFF" d="M68.268,65.824c2.09,1.514,2.947,4.238,2.095,6.624c-0.233,0.662-0.532,1.3-0.894,1.901l-0.707,1.043
		c-0.202,0.275-0.424,0.535-0.664,0.778c-1.221,1.267-2.77,2.165-4.596,2.671c-1.202,0.32-2.441,0.478-3.685,0.469
		c-7.681,0-17.562-5.288-25.788-13.801C24.236,55.376,19.059,43.119,21.15,35.014c0.486-1.893,1.355-3.493,2.58-4.758
		c0.224-0.233,0.457-0.45,0.707-0.654l1-0.731c0.609-0.393,1.224-0.704,1.89-0.958c2.276-0.871,4.976,0.055,6.404,2.167l5.07,7.512
		c0.859,1.276,1.187,2.814,0.926,4.336c-0.249,1.503-1.08,2.847-2.314,3.741l-2.416,1.741c1.893,2.924,4.538,6.185,7.542,9.293
		c3.003,3.109,6.157,5.846,8.982,7.806l1.685-2.5c1.021-1.542,2.744-2.474,4.594-2.483c1.149,0,2.258,0.364,3.21,1.049
		L68.268,65.824L68.268,65.824z M68.26,71.645c0.502-1.4-0.023-3.012-1.275-3.918l-7.258-5.249
		c-1.479-1.063-3.659-0.657-4.684,0.862l-2.305,3.42c-0.332,0.505-1.009,0.646-1.516,0.319c-3.18-2.072-6.828-5.173-10.268-8.732
		c-3.438-3.559-6.435-7.333-8.435-10.624c-0.317-0.524-0.185-1.204,0.307-1.569l3.303-2.384c0.742-0.535,1.233-1.331,1.39-2.245
		c0.158-0.907-0.042-1.84-0.557-2.603l-5.071-7.511c-0.645-0.948-1.667-1.517-2.743-1.517c-0.358,0-0.713,0.067-1.048,0.195
		c-0.499,0.189-0.978,0.43-1.427,0.717l-0.909,0.66c-0.159,0.135-0.311,0.278-0.454,0.43c-0.941,0.974-1.614,2.226-2,3.719
		c-1.862,7.219,3.198,18.839,12.3,28.257c7.819,8.093,17.093,13.12,24.203,13.12c1.12,0,2.165-0.131,3.105-0.392
		c1.441-0.399,2.651-1.096,3.593-2.068c0.155-0.168,0.311-0.334,0.448-0.518l0.642-0.945C67.838,72.68,68.07,72.185,68.26,71.645z
		 M74.734,24.138c0.623,0,1.128,0.535,1.128,1.195V42.05c0,0.661-0.505,1.195-1.128,1.195H59.104l-2.691,6.069
		c-0.175,0.41-0.574,0.679-1.021,0.686c-0.446-0.006-0.847-0.275-1.021-0.686l-2.688-6.069h-4.001c-0.623,0-1.128-0.534-1.128-1.195
		V25.333c0-0.661,0.505-1.195,1.128-1.195h27.055H74.734z M73.607,40.855V26.527H48.805v14.328h3.591
		c0.437,0,0.834,0.269,1.021,0.688l1.973,4.454l1.976-4.454c0.174-0.411,0.574-0.681,1.021-0.688H73.607L73.607,40.855z
		 M52.811,32.759c-0.6,0-1.086-0.386-1.086-0.862c0-0.476,0.486-0.862,1.086-0.862h15.068c0.601,0,1.086,0.386,1.086,0.862
		c0,0.476-0.485,0.862-1.086,0.862H52.811z M52.811,37.931c-0.6,0-1.086-0.386-1.086-0.862c0-0.476,0.486-0.862,1.086-0.862h15.068
		c0.601,0,1.086,0.386,1.086,0.862c0,0.476-0.485,0.862-1.086,0.862H52.811z"/>
</g>
</svg>
