<?xml version="1.0" encoding="utf-8"?>
<!-- Generator: Adobe Illustrator 15.0.0, SVG Export Plug-In . SVG Version: 6.00 Build 0)  -->
<!DOCTYPE svg PUBLIC "-//W3C//DTD SVG 1.1//EN" "http://www.w3.org/Graphics/SVG/1.1/DTD/svg11.dtd">
<svg version="1.1" id="Capa_1" xmlns="http://www.w3.org/2000/svg" xmlns:xlink="http://www.w3.org/1999/xlink" x="0px" y="0px"
	 width="100px" height="100px" viewBox="0 0 100 100" enable-background="new 0 0 100 100" xml:space="preserve">
<g>
	<path fill="#FFFFFF" d="M77.287,100H23.749c-5.04,0-9.139-4.1-9.139-9.136L7.026,55.26c-2.866-1.42-4.748-4.318-4.748-7.554
		c0-4.729,3.847-8.572,8.572-8.572h78.297c4.727,0,8.572,3.843,8.572,8.572c0,2.767-1.335,5.3-3.568,6.896l-7.789,36.842
		C86.426,95.9,82.327,100,77.287,100z M10.851,44.755c-1.625,0-2.95,1.325-2.95,2.95c0,1.281,0.926,2.416,2.254,2.753
		c1.036,0.264,1.831,1.098,2.05,2.145l7.964,37.684c0.063,2.518,1.64,4.092,3.579,4.092h53.539c1.939,0,3.518-1.574,3.518-3.514
		l8.1-38.612c0.176-0.85,0.736-1.566,1.509-1.947c1.039-0.505,1.688-1.508,1.688-2.599c0-1.625-1.325-2.95-2.95-2.95L10.851,44.755
		L10.851,44.755z"/>
	<path fill="#FFFFFF" d="M23.379,29.086C25.256,16.015,36.467,5.96,50.056,5.96c13.59,0,24.802,10.056,26.679,23.126
		c0.273,4.462,6.022,3.749,6.022,0C80.844,12.713,66.944,0,50.057,0C33.17,0,19.27,12.713,17.357,29.086
		C17.356,33.728,23.453,33.906,23.379,29.086z"/>
</g>
</svg>
