<svg viewBox="0 0 38 38" xmlns="http://www.w3.org/2000/svg"><g transform="translate(1 1)" fill="none" fill-rule="evenodd"><circle stroke="currentColor" cx="18" cy="18" r="18.5"/><path d="M25.75 11.254v13.992c0 .234-.082.44-.246.615a.827.827 0 0 1-.633.264h-4.008v-6.117h2.04l.316-2.356h-2.356v-1.511c0-.399.07-.68.211-.844.188-.211.504-.317.95-.317h1.265v-2.144a19.806 19.806 0 0 0-1.828-.07c-.914 0-1.652.27-2.215.808-.562.54-.844 1.313-.844 2.32v1.758h-2.039v2.356h2.04v6.117h-7.524a.827.827 0 0 1-.633-.264.873.873 0 0 1-.246-.615V11.254c0-.258.082-.469.246-.633a.857.857 0 0 1 .633-.246H24.87c.234 0 .44.082.615.246a.827.827 0 0 1 .264.633z" fill="currentColor"/></g></svg>