<svg viewBox="0 0 38 38" xmlns="http://www.w3.org/2000/svg"><g transform="translate(1 1)" fill="none" fill-rule="evenodd"><circle stroke="currentColor" cx="18" cy="18" r="18.5"/><path d="M14.32 24.062h-3.088v-9.927h3.088v9.927zm-1.527-11.289c-.487 0-.908-.177-1.262-.53A1.724 1.724 0 0 1 11 10.98c0-.486.177-.907.531-1.261a1.724 1.724 0 0 1 1.262-.531c.487 0 .908.177 1.262.53.354.355.53.776.53 1.262 0 .487-.176.908-.53 1.262a1.724 1.724 0 0 1-1.262.531zm13.082 11.29h-3.088v-4.848c0-.797-.066-1.373-.2-1.727-.243-.597-.719-.896-1.427-.896-.708 0-1.206.265-1.494.797-.221.398-.332.985-.332 1.76v4.913h-3.055v-9.927h2.955v1.361h.034c.22-.443.575-.808 1.062-1.096.531-.354 1.151-.53 1.86-.53 1.438 0 2.445.453 3.02 1.36.444.731.665 1.86.665 3.387v5.445z" fill="currentColor"/></g></svg>