<?xml version="1.0" encoding="utf-8"?>
<!-- Generator: Adobe Illustrator 15.0.0, SVG Export Plug-In . SVG Version: 6.00 Build 0)  -->
<!DOCTYPE svg PUBLIC "-//W3C//DTD SVG 1.1//EN" "http://www.w3.org/Graphics/SVG/1.1/DTD/svg11.dtd">
<svg version="1.1" id="Layer_1" xmlns="http://www.w3.org/2000/svg" xmlns:xlink="http://www.w3.org/1999/xlink" x="0px" y="0px"
	 width="100px" height="100px" viewBox="0 0 100 100" enable-background="new 0 0 100 100" xml:space="preserve">
<g>
	<circle opacity="0.81" fill="#FFFFFF" fill-opacity="0.073" cx="50" cy="50" r="50"/>
	<path fill="#FFFFFF" d="M79.484,25.9c-62.042,17.704-60.231,16.152-60.49,17.704c-0.257,1.552,0.907,1.162,12.409,9.303
		l4.135,18.479v0.129c0,0.128,0,0.128,0.129,0.257l0.514,0.515h0.258c0.128,0,0.257,0.129,0.388,0.129c0.129,0,0.259,0,0.388-0.129
		h0.129c0.139-0.009,0.25-0.119,0.259-0.258l9.045-8.786C58.8,71.383,60.865,73.707,61.771,71.64
		C81.422,26.416,81.035,27.71,81.035,27.195c0-1.681-1.938-1.293-1.551-1.293V25.9z M23.388,44.248l45.238-12.664L32.695,50.581
		L23.388,44.248L23.388,44.248z M36.702,64.666l-2.198-9.689c0.129,0.127,3.75,2.453,3.49,2.325L36.7,64.666H36.702z M35.15,52.262
		l11.374-6.074l18.353-9.69L39.545,55.232C39.417,55.104,34.893,52.002,35.15,52.262z M38.898,67.379l1.552-8.398
		c0.129,0.128,4.524,2.971,4.267,2.844l-5.821,5.555H38.898z M60.227,69.189c-1.164-0.775-14.866-10.081-18.483-12.404
		l34.895-25.716L60.225,69.186L60.227,69.189z"/>
</g>
</svg>
