<svg viewBox="0 0 38 38" xmlns="http://www.w3.org/2000/svg"><g transform="translate(1 1)" fill="none" fill-rule="evenodd"><circle stroke="currentColor" cx="18" cy="18" r="18.5"/><path d="M25.137 14.594c.023.094.035.246.035.457 0 1.687-.41 3.316-1.23 4.887-.844 1.664-2.028 2.988-3.551 3.972-1.664 1.102-3.575 1.652-5.73 1.652-2.063 0-3.95-.55-5.661-1.652.258.024.55.035.879.035 1.71 0 3.246-.527 4.605-1.582-.82 0-1.54-.24-2.162-.72a3.671 3.671 0 0 1-1.283-1.811c.234.023.457.035.668.035.328 0 .656-.035.984-.105a3.72 3.72 0 0 1-2.109-1.301 3.54 3.54 0 0 1-.844-2.32v-.07a3.475 3.475 0 0 0 1.653.492 4.095 4.095 0 0 1-1.196-1.336 3.546 3.546 0 0 1-.457-1.776c0-.644.176-1.26.528-1.845a10.18 10.18 0 0 0 3.357 2.742 10.219 10.219 0 0 0 4.236 1.125 5.124 5.124 0 0 1-.07-.844c0-.656.164-1.272.492-1.846a3.613 3.613 0 0 1 1.336-1.353 3.565 3.565 0 0 1 1.828-.492c.54 0 1.037.105 1.494.316.457.21.862.492 1.213.844a7.51 7.51 0 0 0 2.356-.88c-.281.868-.82 1.548-1.617 2.04A7.93 7.93 0 0 0 27 12.66a8.114 8.114 0 0 1-1.863 1.934z" fill="currentColor"/></g></svg>