<svg viewBox="0 0 38 38" xmlns="http://www.w3.org/2000/svg"><g transform="translate(1 1)" fill="none" fill-rule="evenodd"><circle stroke="currentColor" cx="18" cy="18" r="18.5"/><path d="M27.354 13.61c.164.632.281 1.593.351 2.882l.035 1.758-.035 1.758c-.07 1.312-.187 2.285-.351 2.918-.117.398-.328.75-.633 1.054a2.437 2.437 0 0 1-1.09.633c-.61.164-2.039.282-4.289.352l-3.2.035-3.198-.035c-2.25-.07-3.68-.188-4.29-.352a2.437 2.437 0 0 1-1.09-.633 2.452 2.452 0 0 1-.632-1.054c-.164-.633-.281-1.606-.352-2.918l-.035-1.758c0-.516.012-1.102.035-1.758.07-1.289.188-2.25.352-2.883.117-.421.328-.785.633-1.09a2.437 2.437 0 0 1 1.09-.632c.609-.164 2.039-.281 4.289-.352l3.199-.035 3.199.035c2.25.07 3.68.188 4.29.352.421.117.784.328 1.089.633.305.304.516.668.633 1.09zm-11.18 7.523l5.027-2.883-5.027-2.848v5.73z" fill="currentColor"/></g></svg>