<?xml version="1.0" encoding="utf-8"?>
<!-- Generator: Adobe Illustrator 15.0.0, SVG Export Plug-In . SVG Version: 6.00 Build 0)  -->
<!DOCTYPE svg PUBLIC "-//W3C//DTD SVG 1.1//EN" "http://www.w3.org/Graphics/SVG/1.1/DTD/svg11.dtd">
<svg version="1.1" id="Layer_1" xmlns="http://www.w3.org/2000/svg" xmlns:xlink="http://www.w3.org/1999/xlink" x="0px" y="0px"
	 width="100px" height="100px" viewBox="0 0 100 100" enable-background="new 0 0 100 100" xml:space="preserve">
<g>
	<g>
		<circle fill="#FDC068" cx="50.5" cy="50.5" r="45.662"/>
		<path fill="#FBAC3B" d="M50.5,8.351C27.259,8.351,8.351,27.259,8.351,50.5S27.259,92.649,50.5,92.649S92.649,73.741,92.649,50.5
			S73.741,8.351,50.5,8.351z M74.696,81.242l-0.875-1.203c-0.488-0.674-1.429-0.821-2.103-0.334
			c-0.672,0.488-0.822,1.431-0.333,2.104l0.876,1.206c-1.43,0.96-2.927,1.827-4.48,2.596l-0.61-1.368
			c-0.339-0.76-1.228-1.102-1.988-0.763c-0.759,0.338-1.102,1.228-0.763,1.988l0.611,1.371c-1.594,0.64-3.238,1.178-4.928,1.606
			l-0.313-1.475c-0.173-0.813-0.973-1.334-1.785-1.159c-0.813,0.173-1.333,0.972-1.16,1.785l0.313,1.473
			c-1.685,0.29-3.405,0.471-5.154,0.538v-1.503c0-0.831-0.674-1.505-1.505-1.505c-0.832,0-1.505,0.674-1.505,1.505v1.503
			c-1.75-0.067-3.47-0.248-5.154-0.538l0.313-1.473c0.173-0.813-0.346-1.612-1.159-1.785c-0.813-0.175-1.613,0.347-1.786,1.159
			l-0.313,1.475c-1.688-0.429-3.333-0.967-4.927-1.606l0.611-1.371c0.338-0.761-0.003-1.65-0.763-1.988
			c-0.759-0.339-1.649,0.003-1.988,0.763L33.22,85.61c-1.555-0.769-3.052-1.636-4.482-2.596l0.876-1.206
			c0.489-0.673,0.339-1.615-0.333-2.104c-0.672-0.488-1.614-0.34-2.103,0.334l-0.875,1.203c-1.357-1.07-2.641-2.23-3.845-3.468
			l1.102-0.993c0.618-0.556,0.668-1.508,0.112-2.125c-0.557-0.619-1.508-0.668-2.126-0.112l-1.104,0.995
			c-1.105-1.325-2.124-2.724-3.049-4.188l1.292-0.745c0.72-0.415,0.967-1.336,0.551-2.057c-0.416-0.72-1.336-0.967-2.057-0.551
			l-1.296,0.749c-0.804-1.521-1.513-3.101-2.115-4.729l1.432-0.466c0.791-0.257,1.223-1.105,0.966-1.896
			c-0.257-0.791-1.106-1.223-1.897-0.967l-1.434,0.467c-0.467-1.648-0.826-3.342-1.074-5.07l1.496-0.158
			c0.827-0.087,1.426-0.828,1.34-1.653c-0.087-0.827-0.827-1.427-1.654-1.341l-1.495,0.157c-0.056-0.856-0.087-1.721-0.087-2.591
			c0-0.871,0.031-1.734,0.088-2.591l1.495,0.157c0.053,0.005,0.106,0.008,0.159,0.008c0.761,0,1.414-0.575,1.496-1.348
			c0.086-0.827-0.514-1.567-1.341-1.654l-1.496-0.157c0.248-1.729,0.607-3.422,1.074-5.07l1.435,0.466
			c0.154,0.05,0.312,0.074,0.465,0.074c0.635,0,1.225-0.404,1.432-1.041c0.257-0.79-0.176-1.64-0.966-1.896l-1.432-0.465
			c0.602-1.631,1.311-3.209,2.115-4.73l1.297,0.749c0.237,0.136,0.496,0.202,0.751,0.202c0.52,0,1.026-0.27,1.305-0.753
			c0.416-0.72,0.168-1.64-0.551-2.056l-1.292-0.747c0.925-1.463,1.943-2.862,3.049-4.186l1.104,0.995
			c0.289,0.259,0.647,0.386,1.007,0.386c0.412,0,0.822-0.167,1.119-0.497c0.557-0.618,0.507-1.57-0.112-2.126l-1.102-0.992
			c1.204-1.238,2.488-2.397,3.845-3.468l0.875,1.204c0.294,0.406,0.754,0.621,1.219,0.621c0.307,0,0.617-0.094,0.884-0.288
			c0.673-0.489,0.822-1.43,0.333-2.103l-0.876-1.207c1.431-0.96,2.927-1.828,4.482-2.596l0.609,1.368
			c0.25,0.561,0.799,0.894,1.376,0.894c0.205,0,0.413-0.042,0.611-0.13c0.76-0.338,1.101-1.228,0.763-1.987l-0.611-1.373
			c1.594-0.64,3.239-1.177,4.927-1.605l0.313,1.475c0.151,0.708,0.775,1.192,1.471,1.192c0.104,0,0.209-0.011,0.315-0.034
			c0.813-0.172,1.332-0.972,1.159-1.785l-0.313-1.473c1.684-0.29,3.404-0.471,5.154-0.538v1.501c0,0.832,0.674,1.505,1.505,1.505
			s1.505-0.673,1.505-1.505v-1.501c1.749,0.066,3.471,0.247,5.154,0.538l-0.313,1.473c-0.173,0.813,0.348,1.612,1.16,1.785
			c0.106,0.023,0.211,0.034,0.314,0.034c0.695,0,1.32-0.485,1.471-1.192l0.313-1.475c1.689,0.428,3.333,0.965,4.928,1.605
			l-0.611,1.373c-0.339,0.759,0.003,1.649,0.762,1.987c0.2,0.088,0.408,0.13,0.612,0.13c0.576,0,1.127-0.333,1.376-0.894l0.61-1.368
			c1.554,0.768,3.052,1.635,4.481,2.596l-0.876,1.207c-0.489,0.672-0.34,1.613,0.333,2.103c0.267,0.194,0.577,0.288,0.884,0.288
			c0.465,0,0.924-0.215,1.218-0.621l0.876-1.204c1.356,1.071,2.641,2.23,3.845,3.468l-1.103,0.992
			c-0.617,0.557-0.668,1.508-0.112,2.126c0.298,0.33,0.708,0.497,1.119,0.497c0.359,0,0.72-0.127,1.007-0.386l1.104-0.995
			c1.104,1.325,2.123,2.723,3.049,4.186l-1.292,0.747c-0.72,0.416-0.967,1.336-0.552,2.056c0.279,0.483,0.786,0.753,1.307,0.753
			c0.255,0,0.514-0.065,0.751-0.202l1.296-0.749c0.804,1.521,1.514,3.099,2.116,4.73L85.8,37.448
			c-0.79,0.256-1.224,1.106-0.966,1.896c0.206,0.636,0.796,1.041,1.431,1.041c0.154,0,0.312-0.024,0.466-0.074l1.435-0.466
			c0.467,1.648,0.826,3.341,1.074,5.07l-1.498,0.157c-0.826,0.087-1.426,0.828-1.339,1.654c0.081,0.774,0.734,1.348,1.495,1.348
			c0.053,0,0.105-0.003,0.16-0.008l1.493-0.157c0.057,0.856,0.088,1.72,0.088,2.591c0,0.87-0.031,1.734-0.088,2.591l-1.493-0.157
			c-0.826-0.087-1.568,0.514-1.655,1.341c-0.087,0.825,0.513,1.566,1.339,1.653l1.498,0.157c-0.248,1.728-0.607,3.423-1.074,5.07
			l-1.435-0.466c-0.791-0.257-1.641,0.176-1.897,0.966c-0.257,0.791,0.176,1.641,0.967,1.897l1.433,0.466
			c-0.603,1.629-1.313,3.208-2.116,4.729l-1.297-0.749c-0.719-0.417-1.641-0.17-2.057,0.551c-0.415,0.721-0.168,1.641,0.552,2.056
			l1.292,0.746c-0.926,1.464-1.944,2.861-3.05,4.187l-1.104-0.994c-0.616-0.556-1.568-0.507-2.126,0.111
			c-0.556,0.617-0.506,1.57,0.111,2.126l1.104,0.992C77.337,79.012,76.054,80.172,74.696,81.242z"/>
		<polygon fill="#F89A1C" points="53.809,63.983 53.809,36.378 47.787,39.307 47.787,63.983 		"/>
		<path fill="#FBAC3B" d="M28.169,49.137l-2.424,9.741c-0.002,0,3.343,4.677,3.343,4.677l4.877-3.045l1.479-9.927L28.169,49.137z"/>
		<polygon fill="#F89A1C" points="36.938,40.555 35.445,50.583 31.023,53.809 28.169,49.137 30.615,39.3 32.958,44.059 		"/>
		<path fill="#FBAC3B" d="M72.831,49.137l2.425,9.741c0.003,0-3.345,4.677-3.345,4.677l-4.878-3.045l-1.479-9.927L72.831,49.137z"/>
		<polygon fill="#F89A1C" points="64.062,40.555 65.555,50.583 69.977,53.809 72.831,49.137 70.384,39.3 68.042,44.059 		"/>
	</g>
	<path fill="#010101" d="M87.003,71.574c0.026-0.046,0.05-0.094,0.072-0.143c3.546-6.171,5.574-13.318,5.574-20.932
		c0-7.613-2.028-14.76-5.574-20.931c-0.022-0.048-0.046-0.097-0.072-0.144c-0.03-0.053-0.063-0.102-0.1-0.149
		c-1.418-2.423-3.071-4.692-4.929-6.777c-0.045-0.07-0.094-0.139-0.151-0.202c-0.056-0.061-0.113-0.114-0.176-0.164
		c-1.876-2.059-3.955-3.93-6.202-5.585c-0.054-0.052-0.108-0.103-0.172-0.147c-0.06-0.044-0.122-0.081-0.187-0.115
		c-2.303-1.659-4.777-3.092-7.393-4.266c-0.018-0.009-0.033-0.018-0.051-0.026c-0.022-0.009-0.045-0.017-0.067-0.026
		c-5.223-2.324-11-3.618-17.076-3.618c-6.076,0-11.854,1.294-17.076,3.618c-0.022,0.009-0.045,0.017-0.067,0.026
		c-0.018,0.008-0.034,0.017-0.051,0.026c-2.616,1.174-5.091,2.606-7.393,4.266c-0.064,0.034-0.127,0.071-0.188,0.114
		c-0.062,0.045-0.118,0.095-0.171,0.147c-2.247,1.656-4.325,3.527-6.202,5.586c-0.062,0.049-0.12,0.103-0.174,0.163
		c-0.058,0.063-0.107,0.132-0.152,0.203c-1.857,2.084-3.51,4.354-4.928,6.776c-0.036,0.048-0.069,0.097-0.1,0.149
		c-0.027,0.046-0.052,0.095-0.073,0.143C10.38,35.74,8.351,42.887,8.351,50.5c0,7.613,2.029,14.761,5.575,20.932
		c0.021,0.049,0.045,0.097,0.073,0.143c0.028,0.05,0.061,0.097,0.094,0.141c1.419,2.427,3.074,4.698,4.933,6.785
		c0.044,0.071,0.094,0.139,0.152,0.203c0.054,0.06,0.112,0.113,0.173,0.162c1.876,2.06,3.957,3.932,6.203,5.588
		c0.054,0.052,0.11,0.102,0.172,0.146c0.061,0.045,0.124,0.082,0.188,0.115c2.302,1.658,4.776,3.092,7.392,4.266
		c0.017,0.009,0.033,0.018,0.051,0.024c0.021,0.01,0.042,0.017,0.063,0.025c5.224,2.324,11.003,3.619,17.08,3.619
		c6.077,0,11.855-1.295,17.079-3.62c0.022-0.009,0.043-0.015,0.064-0.024c0.018-0.007,0.033-0.018,0.052-0.024
		c2.614-1.174,5.089-2.607,7.392-4.267c0.063-0.033,0.127-0.069,0.188-0.115c0.063-0.044,0.117-0.095,0.171-0.146
		c2.247-1.656,4.328-3.528,6.205-5.588c0.06-0.051,0.119-0.103,0.173-0.162c0.058-0.064,0.107-0.133,0.151-0.203
		c1.859-2.087,3.515-4.358,4.934-6.786C86.941,71.671,86.974,71.624,87.003,71.574z M74.696,81.242l-0.875-1.203
		c-0.488-0.674-1.429-0.821-2.103-0.334c-0.672,0.488-0.822,1.431-0.333,2.104l0.876,1.206c-1.43,0.96-2.927,1.827-4.48,2.596
		l-0.61-1.368c-0.339-0.76-1.228-1.102-1.988-0.763c-0.759,0.338-1.102,1.228-0.763,1.988l0.611,1.371
		c-1.594,0.64-3.238,1.178-4.928,1.606l-0.313-1.475c-0.173-0.813-0.973-1.334-1.785-1.159c-0.813,0.173-1.333,0.972-1.16,1.785
		l0.313,1.473c-1.685,0.29-3.405,0.471-5.154,0.538v-1.503c0-0.831-0.674-1.505-1.505-1.505c-0.832,0-1.505,0.674-1.505,1.505v1.503
		c-1.75-0.067-3.47-0.248-5.154-0.538l0.313-1.473c0.173-0.813-0.346-1.612-1.159-1.785c-0.813-0.175-1.613,0.347-1.786,1.159
		l-0.313,1.475c-1.688-0.429-3.333-0.967-4.927-1.606l0.611-1.371c0.338-0.761-0.003-1.65-0.763-1.988
		c-0.759-0.339-1.649,0.003-1.988,0.763L33.22,85.61c-1.555-0.769-3.052-1.636-4.482-2.596l0.876-1.206
		c0.489-0.673,0.339-1.615-0.333-2.104c-0.672-0.488-1.614-0.34-2.103,0.334l-0.875,1.203c-1.357-1.07-2.641-2.23-3.845-3.468
		l1.102-0.993c0.618-0.556,0.668-1.508,0.112-2.125c-0.557-0.619-1.508-0.668-2.126-0.112l-1.104,0.995
		c-1.105-1.325-2.124-2.724-3.049-4.188l1.292-0.745c0.72-0.415,0.967-1.336,0.551-2.057c-0.416-0.72-1.336-0.967-2.057-0.551
		l-1.296,0.749c-0.804-1.521-1.513-3.101-2.115-4.729l1.432-0.466c0.791-0.257,1.223-1.105,0.966-1.896
		c-0.257-0.791-1.106-1.223-1.897-0.967l-1.434,0.467c-0.467-1.648-0.826-3.342-1.074-5.07l1.496-0.158
		c0.827-0.087,1.426-0.828,1.34-1.653c-0.087-0.827-0.827-1.427-1.654-1.341l-1.495,0.157c-0.056-0.856-0.087-1.721-0.087-2.591
		c0-0.871,0.031-1.734,0.088-2.591l1.495,0.157c0.053,0.005,0.106,0.008,0.159,0.008c0.761,0,1.414-0.575,1.496-1.348
		c0.086-0.827-0.514-1.567-1.341-1.654l-1.496-0.157c0.248-1.729,0.607-3.422,1.074-5.07l1.435,0.466
		c0.154,0.05,0.312,0.074,0.465,0.074c0.635,0,1.225-0.404,1.432-1.041c0.257-0.79-0.176-1.64-0.966-1.896l-1.432-0.465
		c0.602-1.631,1.311-3.209,2.115-4.73l1.297,0.749c0.237,0.136,0.496,0.202,0.751,0.202c0.52,0,1.026-0.27,1.305-0.753
		c0.416-0.72,0.168-1.64-0.551-2.056l-1.292-0.747c0.925-1.463,1.943-2.862,3.049-4.186l1.104,0.995
		c0.289,0.259,0.647,0.386,1.007,0.386c0.412,0,0.822-0.167,1.119-0.497c0.557-0.618,0.507-1.57-0.112-2.126l-1.102-0.992
		c1.204-1.238,2.488-2.397,3.845-3.468l0.875,1.204c0.294,0.406,0.754,0.621,1.219,0.621c0.307,0,0.617-0.094,0.884-0.288
		c0.673-0.489,0.822-1.43,0.333-2.103l-0.876-1.207c1.431-0.96,2.927-1.828,4.482-2.596l0.609,1.368
		c0.25,0.561,0.799,0.894,1.376,0.894c0.205,0,0.413-0.042,0.611-0.13c0.76-0.338,1.101-1.228,0.763-1.987l-0.611-1.373
		c1.594-0.64,3.239-1.177,4.927-1.605l0.313,1.475c0.151,0.708,0.775,1.192,1.471,1.192c0.104,0,0.209-0.011,0.315-0.034
		c0.813-0.172,1.332-0.972,1.159-1.785l-0.313-1.473c1.684-0.29,3.404-0.471,5.154-0.538v1.501c0,0.832,0.674,1.505,1.505,1.505
		s1.505-0.673,1.505-1.505v-1.501c1.749,0.066,3.471,0.247,5.154,0.538l-0.313,1.473c-0.173,0.813,0.348,1.612,1.16,1.785
		c0.106,0.023,0.211,0.034,0.314,0.034c0.695,0,1.32-0.485,1.471-1.192l0.313-1.475c1.689,0.428,3.333,0.965,4.928,1.605
		l-0.611,1.373c-0.339,0.759,0.003,1.649,0.762,1.987c0.2,0.088,0.408,0.13,0.612,0.13c0.576,0,1.127-0.333,1.376-0.894l0.61-1.368
		c1.554,0.768,3.052,1.635,4.481,2.596l-0.876,1.207c-0.489,0.672-0.34,1.613,0.333,2.103c0.267,0.194,0.577,0.288,0.884,0.288
		c0.465,0,0.924-0.215,1.218-0.621l0.876-1.204c1.356,1.071,2.641,2.23,3.845,3.468l-1.103,0.992
		c-0.617,0.557-0.668,1.508-0.112,2.126c0.298,0.33,0.708,0.497,1.119,0.497c0.359,0,0.72-0.127,1.007-0.386l1.104-0.995
		c1.104,1.325,2.123,2.723,3.049,4.186l-1.292,0.747c-0.72,0.416-0.967,1.336-0.552,2.056c0.279,0.483,0.786,0.753,1.307,0.753
		c0.255,0,0.514-0.065,0.751-0.202l1.296-0.749c0.804,1.521,1.514,3.099,2.116,4.73L85.8,37.448
		c-0.79,0.256-1.224,1.106-0.966,1.896c0.206,0.636,0.796,1.041,1.431,1.041c0.154,0,0.312-0.024,0.466-0.074l1.435-0.466
		c0.467,1.648,0.826,3.341,1.074,5.07l-1.498,0.157c-0.826,0.087-1.426,0.828-1.339,1.654c0.081,0.774,0.734,1.348,1.495,1.348
		c0.053,0,0.105-0.003,0.16-0.008l1.493-0.157c0.057,0.856,0.088,1.72,0.088,2.591c0,0.87-0.031,1.734-0.088,2.591l-1.493-0.157
		c-0.826-0.087-1.568,0.514-1.655,1.341c-0.087,0.825,0.513,1.566,1.339,1.653l1.498,0.157c-0.248,1.728-0.607,3.423-1.074,5.07
		l-1.435-0.466c-0.791-0.257-1.641,0.176-1.897,0.966c-0.257,0.791,0.176,1.641,0.967,1.897l1.433,0.466
		c-0.603,1.629-1.313,3.208-2.116,4.729l-1.297-0.749c-0.719-0.417-1.641-0.17-2.057,0.551c-0.415,0.721-0.168,1.641,0.552,2.056
		l1.292,0.746c-0.926,1.464-1.944,2.861-3.05,4.187l-1.104-0.994c-0.616-0.556-1.568-0.507-2.126,0.111
		c-0.556,0.617-0.506,1.57,0.111,2.126l1.104,0.992C77.337,79.012,76.054,80.172,74.696,81.242z M46.281,62.903V41.717
		c-0.558-0.01-1.089-0.329-1.34-0.87c-0.35-0.753-0.023-1.648,0.73-1.999l7.503-3.488c0.466-0.216,1.01-0.18,1.443,0.096
		c0.433,0.276,0.696,0.755,0.696,1.269V54.24c0,0.831-0.674,1.505-1.505,1.505c-0.832,0-1.506-0.674-1.506-1.505V39.085l-3.011,1.4
		v22.283h3.011v-2.508c0-0.832,0.674-1.505,1.506-1.505c0.831,0,1.505,0.673,1.505,1.505v2.643c0.522,0.236,0.886,0.761,0.886,1.372
		c0,0.831-0.673,1.505-1.505,1.505H46.9c-0.832,0-1.505-0.674-1.505-1.505C45.395,63.664,45.759,63.14,46.281,62.903z
		 M83.852,17.148C74.943,8.239,63.099,3.333,50.5,3.333c-12.599,0-24.444,4.906-33.352,13.815C8.239,26.056,3.333,37.901,3.333,50.5
		c0,12.599,4.906,24.443,13.815,33.352c8.908,8.909,20.753,13.815,33.352,13.815c12.599,0,24.443-4.906,33.352-13.815
		c8.909-8.908,13.815-20.753,13.815-33.352C97.667,37.901,92.761,26.056,83.852,17.148z M50.5,94.656
		c-24.349,0-44.156-19.809-44.156-44.156c0-24.349,19.808-44.156,44.156-44.156c24.348,0,44.156,19.808,44.156,44.156
		C94.656,74.848,74.848,94.656,50.5,94.656z M29.197,32.578c-0.606-0.569-0.637-1.522-0.068-2.128
		c5.52-5.881,13.309-9.253,21.371-9.253c8.063,0,15.853,3.373,21.371,9.254c0.568,0.606,0.54,1.559-0.066,2.128
		c-0.291,0.272-0.661,0.408-1.03,0.408c-0.401,0-0.803-0.16-1.099-0.476c-5.025-5.354-11.835-8.304-19.176-8.304
		c-7.34,0-14.15,2.949-19.175,8.304C30.755,33.117,29.803,33.146,29.197,32.578z M41.712,49.246
		c-0.815-0.163-1.607,0.368-1.77,1.183l-1.893,9.539c-0.42,2.12-1.643,3.95-3.439,5.15c-1.372,0.919-2.955,1.385-4.57,1.367
		l0.396-1.998l4.325-2.701c0.01-0.007,0.02-0.014,0.029-0.021c0.025-0.017,0.05-0.033,0.075-0.051
		c0.016-0.012,0.032-0.025,0.048-0.038c0.02-0.017,0.04-0.033,0.059-0.051c0.017-0.015,0.033-0.03,0.048-0.045
		c0.018-0.018,0.035-0.036,0.051-0.054c0.015-0.017,0.03-0.032,0.044-0.05c0.017-0.021,0.032-0.041,0.048-0.063
		c0.012-0.016,0.025-0.031,0.036-0.048c0.021-0.029,0.04-0.061,0.058-0.091c0.005-0.01,0.011-0.017,0.016-0.026
		c0.023-0.041,0.044-0.082,0.064-0.127c0.002-0.003,0.003-0.007,0.005-0.011c0.017-0.039,0.033-0.079,0.046-0.12
		c0.005-0.014,0.009-0.029,0.014-0.046c0.009-0.028,0.018-0.058,0.025-0.088c0.005-0.022,0.009-0.045,0.013-0.066
		c0.004-0.021,0.009-0.04,0.012-0.061l1.478-9.916c0,0,0-0.001,0-0.001l1.496-10.036c0.093-0.625-0.214-1.242-0.769-1.544
		c-0.555-0.302-1.24-0.226-1.714,0.192l-0.644,0.567l0.745-3.758c0.163-0.815-0.368-1.608-1.183-1.77
		c-0.814-0.163-1.607,0.368-1.77,1.184l-0.746,3.758l-0.378-0.77c-0.279-0.567-0.884-0.9-1.511-0.833
		c-0.629,0.068-1.148,0.521-1.301,1.133l-4.865,19.546c-0.002,0.007-0.003,0.013-0.005,0.02l-0.002,0.012
		c-0.001,0.005-0.002,0.013-0.003,0.018c-0.009,0.041-0.018,0.082-0.024,0.124c-0.002,0.014-0.003,0.027-0.005,0.041
		c-0.004,0.034-0.008,0.07-0.01,0.104c0,0.017,0,0.033-0.001,0.051c0,0.031,0,0.063,0,0.097c0.001,0.017,0.002,0.033,0.004,0.05
		c0.002,0.033,0.005,0.064,0.01,0.097c0.002,0.016,0.005,0.03,0.008,0.046c0.006,0.032,0.013,0.066,0.021,0.1
		c0.003,0.013,0.007,0.026,0.011,0.038c0.009,0.035,0.021,0.068,0.032,0.102c0.004,0.014,0.009,0.025,0.014,0.036
		c0.012,0.033,0.027,0.067,0.042,0.1c0.006,0.013,0.012,0.023,0.019,0.036c0.016,0.031,0.031,0.063,0.049,0.092
		c0.009,0.014,0.018,0.028,0.027,0.042c0.014,0.022,0.028,0.044,0.042,0.066l2.966,4.148l-0.396,1.998
		c-1.5-0.601-2.785-1.636-3.703-3.009c-1.202-1.797-1.632-3.953-1.211-6.073l1.893-9.539c0.162-0.816-0.368-1.607-1.184-1.769
		c-0.814-0.163-1.607,0.368-1.769,1.183l-1.893,9.539c-0.578,2.908,0.012,5.869,1.661,8.333c1.367,2.044,3.325,3.541,5.612,4.325
		l-0.479,2.408c-0.162,0.815,0.368,1.607,1.184,1.771c0.099,0.02,0.198,0.028,0.295,0.028c0.704,0,1.332-0.495,1.475-1.213
		l0.478-2.408c0.229,0.014,0.459,0.023,0.688,0.023c2.174,0,4.301-0.642,6.149-1.878c2.465-1.647,4.141-4.157,4.718-7.067
		l1.894-9.538C43.058,50.199,42.528,49.407,41.712,49.246z M28.759,52.991l0.979,1.601c0.219,0.359,0.579,0.61,0.992,0.692
		c0.097,0.019,0.195,0.028,0.292,0.028c0.316,0,0.628-0.1,0.887-0.289l1.516-1.105l-0.847,5.683l-3.088,1.93l-2.118-2.962
		L28.759,52.991z M31.082,43.659l0.524,1.065c0.003,0.007,0.007,0.013,0.01,0.019c0.018,0.034,0.038,0.067,0.057,0.101
		c0.008,0.014,0.016,0.028,0.025,0.041c0.029,0.044,0.061,0.088,0.094,0.129c0.004,0.004,0.008,0.008,0.012,0.013
		c0.031,0.037,0.063,0.072,0.097,0.105c0.011,0.012,0.023,0.021,0.035,0.032c0.029,0.026,0.057,0.051,0.087,0.076
		c0.013,0.011,0.027,0.021,0.041,0.03c0.03,0.022,0.061,0.043,0.093,0.064c0.015,0.008,0.028,0.018,0.043,0.026
		c0.033,0.019,0.067,0.037,0.102,0.054c0.015,0.007,0.03,0.015,0.045,0.021c0.037,0.016,0.073,0.03,0.111,0.042
		c0.015,0.005,0.029,0.012,0.043,0.016c0.049,0.016,0.099,0.029,0.151,0.039c0.003,0,0.006,0.002,0.01,0.002
		c0.002,0,0.005,0,0.008,0.001c0.051,0.01,0.103,0.017,0.153,0.022c0.016,0.001,0.03,0.001,0.044,0.002
		c0.03,0.001,0.059,0.004,0.088,0.004c0.012,0,0.023-0.001,0.035-0.001c0.013,0,0.025-0.001,0.038-0.002
		c0.043-0.002,0.086-0.006,0.129-0.012c0.01-0.001,0.02-0.003,0.03-0.004c0.104-0.017,0.206-0.044,0.304-0.081
		c0.013-0.005,0.025-0.011,0.039-0.016c0.036-0.015,0.072-0.031,0.107-0.049c0.012-0.006,0.026-0.013,0.039-0.02
		c0.044-0.025,0.088-0.051,0.13-0.08c0.008-0.006,0.016-0.012,0.024-0.018c0.035-0.025,0.068-0.051,0.101-0.079
		c0.005-0.005,0.013-0.009,0.019-0.015l0.89-0.784l-0.794,5.331l-2.592,1.892l-1.675-2.739L31.082,43.659z M74.506,68.89
		c2.285-0.784,4.246-2.281,5.611-4.325c1.648-2.465,2.238-5.425,1.662-8.334l-1.895-9.539c-0.161-0.815-0.953-1.346-1.769-1.183
		c-0.815,0.162-1.346,0.954-1.184,1.77l1.893,9.539c0.421,2.121-0.009,4.276-1.211,6.074c-0.917,1.371-2.202,2.407-3.701,3.008
		L73.517,63.9l2.965-4.147c0.016-0.022,0.028-0.044,0.044-0.066c0.008-0.014,0.018-0.028,0.025-0.043
		c0.019-0.029,0.034-0.06,0.05-0.092c0.007-0.012,0.013-0.022,0.019-0.035c0.016-0.032,0.029-0.066,0.042-0.1
		c0.005-0.012,0.009-0.023,0.014-0.036c0.012-0.033,0.022-0.067,0.031-0.102c0.005-0.013,0.009-0.025,0.012-0.038
		c0.008-0.033,0.015-0.067,0.021-0.101c0.003-0.015,0.006-0.03,0.009-0.046c0.004-0.031,0.007-0.063,0.01-0.097
		c0.001-0.017,0.002-0.033,0.003-0.05c0.003-0.033,0.003-0.065,0.002-0.097c0-0.018,0-0.034-0.002-0.051
		c-0.002-0.034-0.005-0.069-0.009-0.104c-0.002-0.014-0.003-0.027-0.005-0.041c-0.007-0.041-0.015-0.082-0.024-0.123
		c-0.001-0.006-0.002-0.013-0.003-0.019l-0.003-0.012c-0.002-0.006-0.003-0.012-0.005-0.02l-4.865-19.545
		c-0.153-0.613-0.673-1.065-1.3-1.133c-0.629-0.067-1.233,0.265-1.513,0.832l-0.378,0.771l-0.746-3.758
		c-0.162-0.815-0.954-1.346-1.769-1.184c-0.816,0.162-1.346,0.955-1.185,1.77l0.746,3.758l-0.645-0.567
		c-0.475-0.418-1.159-0.495-1.714-0.193c-0.555,0.302-0.862,0.919-0.77,1.544l1.495,10.036c0,0,0,0.001,0,0.001l1.478,9.916
		c0.003,0.021,0.008,0.04,0.012,0.061c0.005,0.022,0.009,0.044,0.015,0.066c0.007,0.03,0.016,0.06,0.024,0.089
		c0.004,0.017,0.009,0.031,0.013,0.047c0.015,0.04,0.03,0.081,0.048,0.121c0.002,0.002,0.003,0.005,0.004,0.008
		c0.02,0.045,0.04,0.086,0.063,0.128c0.004,0.008,0.009,0.015,0.013,0.022c0.021,0.032,0.04,0.063,0.062,0.094
		c0.01,0.017,0.022,0.031,0.034,0.047c0.017,0.021,0.033,0.043,0.05,0.063c0.015,0.017,0.028,0.031,0.043,0.049
		c0.018,0.018,0.034,0.037,0.052,0.055c0.016,0.014,0.031,0.029,0.049,0.044c0.02,0.018,0.039,0.035,0.061,0.052
		c0.015,0.013,0.031,0.026,0.047,0.037c0.025,0.019,0.05,0.035,0.076,0.052c0.01,0.008,0.019,0.015,0.028,0.021l4.325,2.701
		l0.396,1.998c-1.615,0.018-3.198-0.448-4.571-1.367c-1.796-1.201-3.018-3.03-3.438-5.151l-1.894-9.538
		c-0.161-0.815-0.954-1.345-1.77-1.183c-0.814,0.161-1.345,0.954-1.183,1.77l1.893,9.537c0.576,2.91,2.253,5.42,4.718,7.068
		c1.849,1.236,3.975,1.877,6.15,1.877c0.229,0,0.458-0.01,0.688-0.023l0.479,2.409c0.141,0.717,0.77,1.212,1.475,1.212
		c0.097,0,0.194-0.009,0.294-0.028c0.815-0.162,1.346-0.954,1.184-1.77L74.506,68.89z M68.423,59.601l-0.848-5.683l1.516,1.105
		c0.259,0.189,0.57,0.289,0.887,0.289c0.097,0,0.196-0.01,0.294-0.028c0.412-0.083,0.771-0.333,0.99-0.692l0.979-1.601l1.388,5.576
		l-2.117,2.962L68.423,59.601z M71.22,48.89l-1.674,2.738l-2.593-1.891l-0.795-5.331l0.891,0.784
		c0.005,0.005,0.012,0.009,0.017,0.014c0.033,0.028,0.068,0.055,0.104,0.081c0.008,0.005,0.015,0.011,0.021,0.016
		c0.043,0.029,0.086,0.055,0.132,0.08c0.012,0.006,0.023,0.013,0.036,0.019c0.035,0.018,0.071,0.035,0.108,0.05
		c0.013,0.005,0.025,0.011,0.039,0.016c0.097,0.037,0.199,0.065,0.304,0.081c0.01,0.001,0.02,0.003,0.029,0.005
		c0.043,0.005,0.087,0.01,0.13,0.012c0.013,0,0.025,0.001,0.038,0.001c0.011,0,0.022,0.002,0.035,0.002
		c0.028,0,0.058-0.003,0.087-0.004c0.016-0.001,0.029-0.001,0.045-0.002c0.05-0.005,0.102-0.012,0.154-0.022
		c0.002,0,0.006,0,0.009-0.001s0.006-0.002,0.009-0.002c0.051-0.01,0.102-0.023,0.15-0.04c0.016-0.004,0.03-0.01,0.045-0.015
		c0.037-0.013,0.075-0.028,0.11-0.043c0.016-0.007,0.03-0.015,0.046-0.021c0.034-0.017,0.068-0.035,0.101-0.054
		c0.015-0.009,0.029-0.018,0.043-0.026c0.032-0.021,0.064-0.042,0.094-0.064c0.014-0.01,0.027-0.02,0.042-0.03
		c0.03-0.024,0.059-0.049,0.088-0.076c0.012-0.01,0.022-0.021,0.034-0.032c0.033-0.033,0.066-0.068,0.096-0.105
		c0.005-0.004,0.009-0.008,0.013-0.013c0.033-0.042,0.065-0.085,0.095-0.129c0.008-0.013,0.016-0.027,0.023-0.041
		c0.021-0.033,0.04-0.066,0.058-0.101c0.004-0.006,0.008-0.012,0.011-0.019l0.524-1.064L71.22,48.89z M57.074,78.099
		c0,0.831-0.674,1.504-1.506,1.504H45.432c-0.832,0-1.505-0.673-1.505-1.504c0-0.832,0.674-1.506,1.505-1.506h10.137
		C56.4,76.593,57.074,77.267,57.074,78.099z M59.482,71.187c0,0.831-0.675,1.505-1.506,1.505H43.023
		c-0.831,0-1.505-0.674-1.505-1.505s0.674-1.506,1.505-1.506h14.954C58.808,69.681,59.482,70.355,59.482,71.187z"/>
</g>
</svg>
