<?xml version="1.0" encoding="utf-8"?>
<!-- Generator: Adobe Illustrator 15.0.0, SVG Export Plug-In . SVG Version: 6.00 Build 0)  -->
<!DOCTYPE svg PUBLIC "-//W3C//DTD SVG 1.1//EN" "http://www.w3.org/Graphics/SVG/1.1/DTD/svg11.dtd">
<svg version="1.1" id="Layer_1" xmlns="http://www.w3.org/2000/svg" xmlns:xlink="http://www.w3.org/1999/xlink" x="0px" y="0px"
	 width="100px" height="100px" viewBox="0 0 100 100" enable-background="new 0 0 100 100" xml:space="preserve">
<path fill="#F4A258" d="M96.631,49.5c0,20.063-13.929,36.385-31.051,36.385c-5.47,0-24.691,0-30.159,0
	C18.3,85.885,4.369,69.563,4.369,49.5c0-20.062,13.931-36.385,31.052-36.385c5.468,0,24.689,0,30.159,0
	C82.702,13.115,96.631,29.438,96.631,49.5z"/>
<path fill="#5A5A5A" d="M65.579,85.885c-17.121,0-31.05-16.322-31.05-36.384c0-20.063,13.929-36.385,31.05-36.385
	c17.123,0,31.052,16.322,31.052,36.385C96.631,69.563,82.702,85.885,65.579,85.885z"/>
<path fill="#474747" d="M65.579,13.115c-0.938,0-1.866,0.052-2.784,0.148C78.617,14.919,91.062,30.538,91.062,49.5
	c0,18.963-12.444,34.582-28.267,36.236c0.918,0.097,1.847,0.148,2.784,0.148c17.123,0,31.052-16.322,31.052-36.385
	S82.702,13.115,65.579,13.115z"/>
<path fill="#FFDEA9" d="M65.579,80.316c-6.623,0-12.913-3.095-17.709-8.715c-5.012-5.873-7.772-13.722-7.772-22.102
	c0-8.379,2.761-16.228,7.772-22.1c4.796-5.62,11.086-8.715,17.709-8.715c6.625,0,12.914,3.095,17.71,8.715
	c5.013,5.873,7.772,13.721,7.772,22.1c0,8.38-2.76,16.229-7.772,22.101C78.494,77.222,72.205,80.316,65.579,80.316z"/>
<path fill="#F3B574" d="M95.601,81.309L95.601,81.309c-0.942,0.942-2.47,0.942-3.412,0L70.881,60.002l3.412-3.413l21.308,21.307
	C96.544,78.838,96.544,80.366,95.601,81.309z"/>
<circle fill="#F58040" cx="70.357" cy="56.066" r="5.626"/>
<path fill="#010101" d="M91.646,71.973c4.175-6.539,6.377-14.282,6.377-22.473c0-20.831-14.554-37.777-32.444-37.777H35.422
	c-17.891,0-32.446,16.947-32.446,37.777c0,20.83,14.555,37.777,32.446,37.777h30.157c7.881,0,15.393-3.293,21.305-9.304l4.319,4.319
	c0.719,0.72,1.675,1.115,2.691,1.115c1.018,0,1.974-0.396,2.691-1.114c1.483-1.484,1.483-3.899,0-5.383L91.646,71.973z
	 M40.15,84.493c-0.004,0-0.008,0-0.011,0c-8.235,0-15.695-3.981-21.075-10.396H36.02c3.337,4.519,7.575,8.111,12.385,10.396H40.15z
	 M28.203,50.892c0.237,7.586,2.403,14.609,5.945,20.42H16.964c-3.827-5.647-6.203-12.718-6.46-20.42H28.203z M37.899,71.96
	c-0.032-0.05-0.065-0.098-0.104-0.143c-4.265-6.062-6.833-13.843-6.833-22.317c0-13.796,6.803-25.752,16.659-31.446
	C38.897,24.832,33.137,36.397,33.137,49.5c0,13.103,5.759,24.666,14.482,31.444C43.868,78.775,40.559,75.7,37.899,71.96z
	 M36.019,24.903h-3.675c-0.769,0-1.393,0.624-1.393,1.393s0.624,1.392,1.393,1.392h1.803c-3.542,5.812-5.707,12.834-5.944,20.42
	H10.504c0.256-7.703,2.633-14.773,6.459-20.42h9.417c0.769,0,1.393-0.623,1.393-1.392s-0.624-1.393-1.393-1.393h-7.316
	c5.38-6.415,12.841-10.396,21.075-10.396h8.264C43.593,16.793,39.355,20.384,36.019,24.903z M5.761,49.5
	c0-13.328,6.35-24.938,15.667-30.846C13.125,25.502,7.694,36.776,7.694,49.5c0,9.069,2.759,17.4,7.351,23.919
	c0.039,0.063,0.082,0.126,0.13,0.183c1.822,2.555,3.926,4.824,6.257,6.746C12.112,74.441,5.761,62.83,5.761,49.5z M94.615,80.325
	c-0.191,0.193-0.447,0.299-0.721,0.299c-0.272,0-0.529-0.105-0.722-0.299l-12.54-12.541c-0.544-0.543-1.425-0.543-1.969,0
	c-0.544,0.544-0.544,1.426,0,1.969l2.313,2.313c-4.337,4.432-9.76,6.857-15.398,6.857c-6.209,0-12.124-2.922-16.65-8.228
	c-4.796-5.618-7.438-13.146-7.438-21.196c0-8.05,2.642-15.578,7.438-21.196c4.528-5.305,10.442-8.228,16.65-8.228
	c5.193,0,10.145,2.011,14.319,5.814c0.569,0.518,1.449,0.477,1.967-0.091c0.519-0.569,0.478-1.45-0.091-1.967
	c-4.696-4.279-10.296-6.54-16.195-6.54c-7.036,0-13.702,3.269-18.769,9.204c-5.226,6.123-8.104,14.292-8.104,23.004
	s2.878,16.882,8.104,23.004c5.064,5.936,11.73,9.204,18.769,9.204c6.391,0,12.507-2.714,17.367-7.672l1.969,1.969
	c-5.39,5.482-12.208,8.488-19.336,8.488c-16.353,0-29.657-15.698-29.657-34.993c0-19.295,13.304-34.993,29.657-34.993
	c16.355,0,29.659,15.697,29.659,34.993c0,7.439-1.936,14.473-5.611,20.452l-2.024-2.023c3.177-5.403,4.852-11.749,4.852-18.429
	c0-7.714-2.318-15.17-6.528-20.997c-0.45-0.623-1.32-0.764-1.944-0.313c-0.623,0.451-0.763,1.321-0.313,1.944
	c3.87,5.355,6.002,12.233,6.002,19.366c0,5.924-1.42,11.548-4.111,16.385l-8.344-8.344c0.481-2.251-0.149-4.693-1.894-6.438
	c-2.737-2.736-7.189-2.736-9.926,0c-1.325,1.326-2.056,3.089-2.056,4.964s0.73,3.637,2.056,4.962s3.088,2.056,4.962,2.056
	c0.504,0,0.999-0.055,1.479-0.157l2.627,2.627c0.272,0.271,0.629,0.408,0.985,0.408c0.355,0,0.712-0.137,0.984-0.408
	c0.544-0.544,0.544-1.426,0-1.97l-1.886-1.886c0.271-0.202,0.528-0.426,0.773-0.67c0.245-0.245,0.467-0.505,0.669-0.774l0,0
	c0,0-0.001-0.001,0,0l18.627,18.625c0.002,0.003-0.003-0.002,0,0l0,0C95.014,79.278,95.014,79.926,94.615,80.325z M67.364,59.06
	c-0.8-0.799-1.24-1.863-1.24-2.993c0-1.132,0.44-2.194,1.24-2.995c0.825-0.825,1.909-1.238,2.993-1.238s2.169,0.413,2.994,1.238
	c1.65,1.651,1.65,4.337,0,5.988S69.016,60.711,67.364,59.06z"/>
</svg>
