<?xml version="1.0" encoding="utf-8"?>
<!-- Generator: Adobe Illustrator 15.0.0, SVG Export Plug-In . SVG Version: 6.00 Build 0)  -->
<!DOCTYPE svg PUBLIC "-//W3C//DTD SVG 1.1//EN" "http://www.w3.org/Graphics/SVG/1.1/DTD/svg11.dtd">
<svg version="1.1" id="Layer_1" xmlns="http://www.w3.org/2000/svg" xmlns:xlink="http://www.w3.org/1999/xlink" x="0px" y="0px"
	 width="100px" height="100px" viewBox="0 0 100 100" enable-background="new 0 0 100 100" xml:space="preserve">
<path fill="#BBBBBB" d="M16.913,74.37c4.154,2.538,6.74,6.386,7.861,8.337c0.438,0.765,1.237,1.228,2.095,1.228
	c0.51,0,47.429,0,46.95,0c0.912,0,1.758-0.492,2.227-1.303c1.143-1.974,3.716-5.757,7.816-8.262
	C82.905,74.37,17.869,74.37,16.913,74.37z"/>
<path fill="#ABABAB" d="M30.045,83.059c-0.988-2.023-3.117-5.782-6.455-8.688h-6.677c4.154,2.538,6.74,6.386,7.861,8.337
	c0.438,0.764,1.237,1.228,2.095,1.228h3.835C30.441,83.703,30.215,83.408,30.045,83.059z"/>
<circle fill="#F58A27" cx="50.388" cy="26.959" r="9.848"/>
<path fill="#E47A25" d="M44.341,26.959c0-4.788,3.418-8.777,7.947-9.663c-0.615-0.12-1.251-0.185-1.901-0.185
	c-5.439,0-9.848,4.409-9.848,9.848c0,5.439,4.409,9.847,9.848,9.847c0.65,0,1.286-0.064,1.901-0.185
	C47.759,35.735,44.341,31.747,44.341,26.959z"/>
<circle fill="#F3A768" cx="40.54" cy="36.762" r="9.848"/>
<path fill="#EB9961" d="M34.494,36.761c0-4.788,3.418-8.776,7.946-9.662c-0.615-0.121-1.25-0.185-1.901-0.185
	c-5.438,0-9.847,4.408-9.847,9.847c0,5.438,4.409,9.848,9.847,9.848c0.65,0,1.286-0.065,1.901-0.186
	C37.912,45.537,34.494,41.549,34.494,36.761z"/>
<circle fill="#F3A768" cx="60.234" cy="36.762" r="9.848"/>
<path fill="#EB9961" d="M54.189,36.761c0-4.788,3.417-8.776,7.946-9.662c-0.615-0.121-1.251-0.185-1.901-0.185
	c-5.438,0-9.848,4.408-9.848,9.847c0,5.438,4.409,9.848,9.848,9.848c0.65,0,1.286-0.065,1.901-0.186
	C57.606,45.537,54.189,41.549,54.189,36.761z"/>
<circle fill="#F58A27" cx="30.692" cy="46.608" r="9.848"/>
<path fill="#E47A25" d="M24.646,46.608c0-4.789,3.418-8.776,7.947-9.663c-0.615-0.12-1.25-0.185-1.901-0.185
	c-5.438,0-9.847,4.409-9.847,9.848c0,5.438,4.408,9.848,9.847,9.848c0.65,0,1.286-0.065,1.901-0.186
	C28.064,55.385,24.646,51.396,24.646,46.608z"/>
<circle fill="#F58A27" cx="50.318" cy="46.608" r="9.848"/>
<path fill="#E47A25" d="M44.272,46.608c0-4.789,3.418-8.776,7.946-9.663c-0.614-0.12-1.25-0.185-1.9-0.185
	c-5.438,0-9.848,4.409-9.848,9.848c0,5.438,4.409,9.848,9.848,9.848c0.65,0,1.286-0.065,1.9-0.186
	C47.69,55.385,44.272,51.396,44.272,46.608z"/>
<circle fill="#F58A27" cx="70.081" cy="46.608" r="9.848"/>
<path fill="#E47A25" d="M64.036,46.608c0-4.789,3.418-8.776,7.946-9.663c-0.614-0.12-1.249-0.185-1.901-0.185
	c-5.438,0-9.847,4.409-9.847,9.848c0,5.438,4.408,9.848,9.847,9.848c0.651,0,1.287-0.065,1.901-0.186
	C67.454,55.385,64.036,51.396,64.036,46.608z"/>
<g>
	<circle fill="#F58A27" cx="30.692" cy="64.373" r="9.847"/>
	<circle fill="#F58A27" cx="50.388" cy="64.373" r="9.847"/>
	<circle fill="#F58A27" cx="70.081" cy="64.373" r="9.847"/>
</g>
<path fill="#D1D2D2" d="M97.328,71.413v-1.816c0-1.812-1.481-3.293-3.293-3.293H6.738c-1.811,0-3.293,1.481-3.293,3.293v1.816
	c0,1.812,1.482,3.293,3.293,3.293h87.297C95.847,74.706,97.328,73.224,97.328,71.413z"/>
<circle fill="#F3A768" cx="20.844" cy="56.456" r="9.848"/>
<path fill="#EB9961" d="M14.799,56.456c0-4.789,3.417-8.777,7.947-9.663c-0.616-0.121-1.25-0.185-1.901-0.185
	c-5.439,0-9.848,4.408-9.848,9.848c0,5.438,4.409,9.848,9.848,9.848c0.65,0,1.285-0.065,1.901-0.186
	C18.216,65.232,14.799,61.244,14.799,56.456z"/>
<circle fill="#F3A768" cx="40.47" cy="56.456" r="9.848"/>
<path fill="#EB9961" d="M34.425,56.456c0-4.789,3.417-8.777,7.946-9.663c-0.615-0.121-1.25-0.185-1.901-0.185
	c-5.439,0-9.848,4.408-9.848,9.848c0,5.438,4.409,9.848,9.848,9.848c0.65,0,1.286-0.065,1.901-0.186
	C37.843,65.232,34.425,61.244,34.425,56.456z"/>
<circle fill="#F3A768" cx="60.234" cy="56.456" r="9.848"/>
<path fill="#EB9961" d="M54.189,56.456c0-4.789,3.417-8.777,7.946-9.663c-0.615-0.121-1.251-0.185-1.901-0.185
	c-5.438,0-9.848,4.408-9.848,9.848c0,5.438,4.409,9.848,9.848,9.848c0.65,0,1.286-0.065,1.901-0.186
	C57.606,65.232,54.189,61.244,54.189,56.456z"/>
<circle fill="#F3A768" cx="79.93" cy="56.456" r="9.848"/>
<path fill="#EB9961" d="M73.884,56.456c0-4.789,3.417-8.777,7.946-9.663c-0.615-0.121-1.25-0.185-1.901-0.185
	c-5.438,0-9.848,4.408-9.848,9.848c0,5.438,4.409,9.848,9.848,9.848c0.65,0,1.286-0.065,1.901-0.186
	C77.301,65.232,73.884,61.244,73.884,56.456z"/>
<path fill="#BBBBBB" d="M97.154,68.551c-0.439,1.302-1.674,2.246-3.119,2.246H6.738c-1.445,0-2.678-0.944-3.119-2.246
	c-0.111,0.329-0.175,0.681-0.175,1.046v1.816c0,1.812,1.482,3.293,3.293,3.293h87.297c1.812,0,3.293-1.481,3.293-3.293v-1.816
	C97.328,69.231,97.266,68.88,97.154,68.551z"/>
<g>
	<path fill="#231F20" d="M94.148,64.887h-6.632c1.453-1.288,2.582-2.959,3.222-4.898c0.245-0.742-0.157-1.544-0.901-1.79
		c-0.743-0.244-1.544,0.158-1.789,0.901c-1.143,3.462-4.36,5.787-8.006,5.787c-5.321,0-9.332-4.898-8.259-10.128
		c0.787-3.838,4.19-6.734,8.259-6.734c3.468,0,6.632,2.176,7.873,5.415c0.28,0.73,1.099,1.096,1.83,0.815
		c0.73-0.279,1.097-1.099,0.815-1.83c-1.498-3.907-5.09-6.655-9.183-7.152c-0.611-5.146-4.702-9.236-9.848-9.847
		c-0.611-5.146-4.703-9.237-9.848-9.847c-0.663-5.583-5.423-9.929-11.183-9.929s-10.52,4.345-11.183,9.93
		c-5.146,0.61-9.236,4.702-9.847,9.847c-5.146,0.611-9.237,4.702-9.847,9.847c-9.62,1.142-13.396,13.172-6.125,19.614H6.852
		c-2.597,0-4.71,2.112-4.71,4.71v1.816c0,2.598,2.113,4.709,4.71,4.709h9.77c3.662,2.267,5.979,5.559,7.046,7.353
		c0.689,1.158,1.958,1.877,3.313,1.877h20.213c0.782,0,1.417-0.634,1.417-1.417c0-0.782-0.634-1.417-1.417-1.417H26.981
		c-0.361,0-0.697-0.188-0.877-0.491c-0.86-1.445-2.442-3.758-4.802-5.904h58.396c-2.329,2.12-3.898,4.399-4.756,5.826
		c-0.21,0.352-0.598,0.569-1.011,0.569H53.806c-0.782,0-1.417,0.634-1.417,1.417s0.635,1.417,1.417,1.417h20.126
		c1.402,0,2.721-0.746,3.441-1.945c1.066-1.777,3.376-5.039,7.004-7.284h9.771c2.596,0,4.71-2.112,4.71-4.71v-1.816
		C98.858,66.999,96.744,64.887,94.148,64.887z M72.583,64.887h-4.776c0.954-0.846,1.765-1.85,2.388-2.97
		C70.819,63.037,71.63,64.041,72.583,64.887z M32.222,56.456c0-4.648,3.781-8.431,8.431-8.431c3.051,0,5.728,1.629,7.208,4.062
		c3.438,5.653-0.712,12.8-7.208,12.8C36.004,64.887,32.222,61.104,32.222,56.456z M33.193,64.887h-4.777
		c0.954-0.846,1.765-1.85,2.389-2.97C31.429,63.037,32.24,64.041,33.193,64.887z M42.172,45.293c0.582-3.695,3.58-6.617,7.346-7.057
		c4.548-0.531,8.616,2.655,9.31,7.057c-3.5,0.473-6.601,2.597-8.328,5.697C48.787,47.917,45.686,45.765,42.172,45.293z M50.5,61.917
		c0.624,1.12,1.434,2.124,2.389,2.97h-4.777C49.066,64.041,49.875,63.037,50.5,61.917z M51.917,56.456
		c0-4.648,3.781-8.431,8.431-8.431c4.648,0,8.431,3.783,8.431,8.431s-3.782,8.431-8.431,8.431
		C55.698,64.887,51.917,61.104,51.917,56.456z M70.194,38.178c4.201,0,7.696,3.089,8.329,7.115c-3.495,0.472-6.602,2.6-8.329,5.697
		c-1.731-3.109-4.848-5.228-8.326-5.697C62.503,41.259,66.006,38.178,70.194,38.178z M59.799,28.35
		c4.416-0.289,8.213,2.875,8.877,7.096c-3.49,0.473-6.599,2.594-8.328,5.697c-1.723-3.092-4.828-5.224-8.328-5.697
		C52.62,31.634,55.808,28.607,59.799,28.35z M50.5,18.482c4.201,0,7.695,3.089,8.328,7.116c-3.498,0.475-6.602,2.599-8.328,5.697
		c-1.701-3.051-4.78-5.216-8.329-5.697C42.805,21.572,46.298,18.482,50.5,18.482z M40.653,28.33c4.155,0,7.686,3.048,8.327,7.116
		c-3.49,0.471-6.599,2.595-8.327,5.697c-1.704-3.057-4.789-5.217-8.329-5.697C32.958,31.42,36.451,28.33,40.653,28.33z
		 M31.787,38.237c3.813,0.445,6.771,3.405,7.346,7.057c-3.584,0.487-6.646,2.681-8.328,5.697c-1.751-3.143-4.883-5.233-8.328-5.697
		C23.161,40.943,27.18,37.703,31.787,38.237z M12.527,56.456c0-4.648,3.782-8.431,8.431-8.431c3.051,0,5.729,1.629,7.208,4.062
		c3.438,5.653-0.712,12.8-7.208,12.8C16.309,64.887,12.527,61.104,12.527,56.456z M96.024,71.413c0,1.034-0.842,1.876-1.876,1.876
		c-0.785,0-86.488,0-87.296,0c-1.036,0-1.877-0.842-1.877-1.876v-1.816c0-1.035,0.841-1.877,1.877-1.877h87.296
		c1.034,0,1.876,0.842,1.876,1.877V71.413z"/>
	<path fill="#231F20" d="M18.397,56.585c0.851,0,1.098-0.519,2.123-1.832c0.482-0.616,0.372-1.506-0.245-1.988
		c-0.617-0.481-1.506-0.372-1.988,0.244l-1.005,1.287C16.552,55.23,17.227,56.585,18.397,56.585z"/>
	<path fill="#231F20" d="M36.967,56.285c0.617,0.481,1.507,0.372,1.989-0.245l1.005-1.286c0.481-0.616,0.373-1.507-0.244-1.989
		c-0.617-0.481-1.507-0.372-1.989,0.245l-1.005,1.287C36.241,54.913,36.351,55.804,36.967,56.285z"/>
	<path fill="#231F20" d="M56.316,56.285c0.617,0.481,1.507,0.372,1.989-0.245l1.005-1.286c0.481-0.616,0.372-1.507-0.244-1.989
		c-0.616-0.481-1.507-0.372-1.989,0.245l-1.005,1.287C55.591,54.913,55.7,55.804,56.316,56.285z"/>
	<path fill="#231F20" d="M76.52,53.01l-1.006,1.287c-0.729,0.933-0.055,2.288,1.116,2.288c0.851,0,1.099-0.52,2.122-1.831
		c0.481-0.617,0.373-1.507-0.244-1.989C77.892,52.283,77.001,52.393,76.52,53.01z"/>
</g>
</svg>
