<?xml version="1.0" encoding="utf-8"?>
<!-- Generator: Adobe Illustrator 15.0.0, SVG Export Plug-In . SVG Version: 6.00 Build 0)  -->
<!DOCTYPE svg PUBLIC "-//W3C//DTD SVG 1.1//EN" "http://www.w3.org/Graphics/SVG/1.1/DTD/svg11.dtd">
<svg version="1.1" id="Layer_1" xmlns="http://www.w3.org/2000/svg" xmlns:xlink="http://www.w3.org/1999/xlink" x="0px" y="0px"
	 width="100px" height="100px" viewBox="0 0 100 100" enable-background="new 0 0 100 100" xml:space="preserve">
<path fill="#F36C28" d="M96.965,37.488V24.476H2.626v13.012c7.186,0,13.012,5.826,13.012,13.012c0,7.186-5.826,13.013-13.012,13.013
	v13.011h94.338V63.513c-7.188,0-13.012-5.827-13.012-13.013C83.953,43.313,89.777,37.488,96.965,37.488z M61.18,71.645h-3.252
	v-3.252h3.252V71.645z M61.18,65.139h-3.252v-3.254h3.252V65.139z M61.18,58.633h-3.252V55.38h3.252V58.633z M61.18,52.126h-3.252
	v-3.252h3.252V52.126z M61.18,45.621h-3.252v-3.253h3.252V45.621z M61.18,39.115h-3.252v-3.253h3.252V39.115z M61.18,32.608h-3.252
	v-3.253h3.252V32.608z"/>
<path fill="#E25726" d="M58.334,48.874h2.846v3.252h-3.252V49.28L30.684,76.523h66.281V63.513c-7.188,0-13.012-5.827-13.012-13.013
	c0-7.187,5.824-13.012,13.012-13.012V24.476H82.732L58.334,48.874z M61.18,71.645h-3.252v-3.252h3.252V71.645z M61.18,65.139h-3.252
	v-3.254h3.252V65.139z M61.18,58.633h-3.252V55.38h3.252V58.633z"/>
<g>
	<g>
		<path id="SVGCleanerId_0" fill="#CF4131" d="M10.759,30.982h42.29v3.253h-42.29V30.982z"/>
	</g>
	<g>
		<path id="SVGCleanerId_1" fill="#CF4131" d="M10.759,66.765h42.29v3.254h-42.29V66.765z"/>
	</g>
	<g>
		<path id="SVGCleanerId_2" fill="#CF4131" d="M66.061,30.982h21.145v3.253H66.061V30.982z"/>
	</g>
	<g>
		<path id="SVGCleanerId_3" fill="#CF4131" d="M66.061,66.765h21.145v3.254H66.061V66.765z"/>
	</g>
</g>
<path fill="#010101" d="M57.928,35.861h3.252v3.253h-3.252V35.861z"/>
<path fill="#010101" d="M57.928,29.355h3.252v3.253h-3.252V29.355z"/>
<path fill="#010101" d="M57.928,42.367h3.252v3.253h-3.252V42.367z"/>
<path fill="#010101" d="M57.928,48.874h3.252v3.252h-3.252V48.874z"/>
<path fill="#010101" d="M57.928,55.38h3.252v3.253h-3.252V55.38z"/>
<path fill="#010101" d="M57.928,61.885h3.252v3.254h-3.252V61.885z"/>
<path fill="#010101" d="M57.928,68.393h3.252v3.252h-3.252V68.393z"/>
<path id="SVGCleanerId_0_1_" fill="#010101" d="M10.759,30.982h42.29v3.253h-42.29V30.982z"/>
<path id="SVGCleanerId_1_1_" fill="#010101" d="M10.759,66.765h42.29v3.254h-42.29V66.765z"/>
<path id="SVGCleanerId_2_1_" fill="#010101" d="M66.061,30.982h21.145v3.253H66.061V30.982z"/>
<path id="SVGCleanerId_3_1_" fill="#010101" d="M66.061,66.765h21.145v3.254H66.061V66.765z"/>
<path fill="#010101" d="M96.965,22.849H2.626C1.728,22.849,1,23.578,1,24.476v13.012c0,0.898,0.728,1.627,1.626,1.627
	c6.288,0,11.386,5.097,11.386,11.385S8.915,61.885,2.626,61.885C1.728,61.885,1,62.614,1,63.513v13.011
	c0,0.898,0.728,1.628,1.626,1.628h94.338c0.898,0,1.625-0.729,1.625-1.628V63.513c0-0.898-0.727-1.628-1.625-1.628
	c-6.287,0-11.387-5.097-11.387-11.385s5.1-11.385,11.387-11.385c0.898,0,1.625-0.729,1.625-1.627V24.476
	C98.59,23.578,97.863,22.849,96.965,22.849z M95.338,35.953c-8.035,0.9-13.818,8.144-12.918,16.177
	c0.762,6.794,6.123,12.156,12.918,12.917v9.851H4.253v-9.851c8.034-0.899,13.817-8.143,12.917-16.177
	c-0.761-6.793-6.124-12.156-12.917-12.917v-9.85h91.084V35.953z"/>
</svg>
